/* XPM */
static char *bitmark64[] = {
/* columns rows colors chars-per-pixel */
"64 64 73 1 ",
"  c #2F0063",
". c #330066",
"X c #360568",
"o c #39076A",
"O c #370969",
"+ c #3B0B6C",
"@ c #40106F",
"# c #431472",
"$ c #471975",
"% c #4A1D77",
"& c #4A1E78",
"* c #4D2079",
"= c #51257C",
"- c #552A7F",
"; c #572E81",
": c #582E82",
"> c #5D3784",
", c #5F3886",
"< c #603987",
"1 c #613B88",
"2 c #66408C",
"3 c #69458E",
"4 c #6B4790",
"5 c #6D4A91",
"6 c #714E94",
"7 c #755396",
"8 c #775598",
"9 c #7C5B9C",
"0 c #7F609F",
"q c #80619F",
"w c #8364A1",
"e c #8668A4",
"r c #896CA6",
"t c #8B6EA8",
"y c #8D72A9",
"u c #9176AC",
"i c #947AAE",
"p c #977EB0",
"a c #987FB1",
"s c #9B83B3",
"d c #A28BB9",
"f c #A791BC",
"g c #A994BD",
"h c #AB96C0",
"j c #AE9BC2",
"k c #B19EC4",
"l c #B2A0C5",
"z c #B7A6C8",
"x c #B8A7C9",
"c c #BBABCB",
"v c #BFB0CF",
"b c #C0B0CF",
"n c #C3B5D1",
"m c #C6B9D3",
"M c #C9BDD6",
"N c #CBBFD8",
"B c #CEC1DA",
"V c #D2C7DD",
"C c #D4CADE",
"Z c #D6CCE0",
"A c #DBD3E4",
"S c #DFD8E6",
"D c #E2DBE9",
"F c #E6E0EC",
"G c #E9E5EE",
"H c #ECE7F0",
"J c #EDE9F1",
"K c #F1EEF4",
"L c #F4F1F6",
"P c #F6F4F8",
"I c #F8F7F9",
"U c #FDFDFD",
"Y c None",
/* pixels */
"YYYYYYYYYYYYYYYYYYYYYYYYYY,,>>->>>>>>>YYYYYYYYYYYYYYYYYYYYYYYYYY",
"YYYYYYYYYYYYYYYYYYYYYY>>,,,->>>>>>>>->,1>>YYYYYYYYYYYYYYYYYYYYYY",
"YYYYYYYYYYYYYYYYYYYY,-1>->>>>>>>>>>>>>,,>>>>YYYYYYYYYYYYYYYYYYYY",
"YYYYYYYYYYYYYYYYY><>,,,,1>2->>>>>>>>>>>>>>>>1,<YYYYYYYYYYYYYYYYY",
"YYYYYYYYYYYYYYYY>>>>>>>>>>>>-,>>>>>>>>>>>>>><>,>YYYYYYYYYYYYYYYY",
"YYYYYYYYYYYYYY>>>>->>->>>>>>>,>>>>>>>>>>>,>>>>>>,<YYYYYYYYYYYYYY",
"YYYYYYYYYYYYY->>>>>>>>>>>>>>,>>>>>>>>>>>,>>,>>,>,,,YYYYYYYYYYYYY",
"YYYYYYYYYYY><>>>>>>>>>>>>>>>>>>>>>>>>>>>>,><>>>>,,,,,YYYYYYYYYYY",
"YYYYYYYYYY>>>>>>>>>>>>>>-,,>,>,>>>>>>>,,>>>,>><>>><>1>YYYYYYYYYY",
"YYYYYYYYY>>>>:>>>>>>>>>>,>>>>>>>>>>>,>>>>,>,><,,<><<>>1YYYYYYYYY",
"YYYYYYYY>>>>>->>-,>>>>>>,,,>>>>,>>>>,>>>,,,,,,,,<>><<>,,YYYYYYYY",
"YYYYYYY,>>>>>>>>>>>>>>>>>,>>>,>>>>>>>>,,,,,,,,,,<<<><<,>,YYYYYYY",
"YYYYYYY,>>>>,>,->>>>>>>>,,>,>,>,<>><><,,,,,,,<,,>><>,,,1<YYYYYYY",
"YYYYYY<,>>>>>>-2>>>>>,>,,>,>>>>>>>>>><,,,,,,,,,,<<<<1>1,<<YYYYYY",
"YYYYY,>>>>>>>>2->,,>>,,>,>>,>>,,2>>><><,,,,,,><,<><<,1,1<<<YYYYY",
"YYYYY>>>>>>>>>>2>>>>,>>,>>,>,,,,>>2>><><,,,,,<,<<<<<1,1,1,<YYYYY",
"YYYY,>,>>>>>,>>>,>>,>,>,,,,,,,,,,,,,,,,,<<>><<><<<<<<<<<1,1<YYYY",
"YYY>>>>>>>>>>,,>-,,>,>>>,,,,,,>,,,,,,,,,>>11<<1<<<<<<1<<11<<1YYY",
"YYY>>>,>,>,>>,>,1,,>,,,,,,,,,,,,,,,,,,,<1<>1>1<<<<<<<<<<<1<11YYY",
"YYY,,>,>>,>>,>,>,,>,,,,,,,,,,,,,,,,,<<<<<<11>1<<<<<<<<<<1<1<1YYY",
"YY>,>,>>>,>,1-,,>,,,,,,,,,,,<,,,,,1,<<<<<<<<<<<<1<<1<111111111YY",
"YY>>>>,>,>,>1,,<1,,,,,,,,,,,,,,<1,,1<<<<<<<<<<<<>1<<1<1<1<1111YY",
"Y>>>>,>>,,,,,,2<>,1111,,2<1,,<,,<<<<1<1>>1<<<<<1111<<1<11<11111Y",
"Y,,>>>,,,,,11--->>->>->>-2-,<<,,>>>>>>111<<1<1111>,,<,111111111Y",
"Y>><,,>,,,,>0sssssspssssssu7>,,2uspsu3,,<<1<111<1ysssp511111111Y",
"Y,,,,,,,,,>1mUPIIIIIIUPIPIPGd2>9JIUUIf,1<111<1<2kPUUUH811111111Y",
"<>><,,,,,,>4AIIUIIIIUIUUIIIILu-yIUUUUJe,11111<2lIUUUUS6132111221",
"><>,,,,,,>>8GUUIILLLLLLLPUIUUm1dUUUIUUC5<1<<<3zIUUUUUKCCCg111111",
"<>,,,,,,,,>rPUUUvqqqqwwwrZUUUm,cUIUUUUUj1<1<3xUUUUUUUUUUUk11111,",
"<<,,,,,>,,>sIUIIs->>>>1-,mUUUg2VUUUUUUUKy<<4cUUUUUUUUUUUUr$$$@++",
">,,,,,2fcxxAUIUIMxxxcxxxMLUUS85DUUULIUUUA65bUUUILUUUPdyyr&......",
"<,,,,,7HUUUUIUIUIUUUUUUUUUUSw>qLUUUnnUUUUbnUUUIdNUUUD$  ........",
">><<<>ePUUUUIUUUUUUUUUUUUUUS7>iUUUUf7DUUUUUUUIp%AUUUMO  ........",
"<<<<<>qbvcBIUIUDbbbbbbbnHUUUj>hUUUI9+9IUUUUUPiX:KUUUCree<.......",
"<<<<<<<<<>uIUUUg>>,,1>>>xUUUc1nUUUJ; ohUUUULyo 6UUUUUUUUy ......",
"<<<<<<<<<>fUUUIg9q000wwyDUUUs&CUUUA#..&ZUULr.. uUUUUUUUU6 ......",
"<<<<<<11<<nUUUILKLLLLLLIUUUH:&FUUUco.. 6KKwX...kUUUIZBBn=.......",
"<<<<<<<1<2CUUUUUUUUUUUUUUUPr.1PUUUd ...oi0....+BUUUS&+++........",
"Y<<<<1<<<6GUUUUUUUUUUUUUIZ9o 0UUUUw ....o.....&DUUUb...........Y",
"Y<1<<1<<<3sdsdsdssywwwew5# ..:ewww%...........@9ewe1...........Y",
"Y111<1<111,<,,1:&o.     ....... . .............. . ...X........Y",
"Y11<111111111>*+...............................................Y",
"YY11<<<11111=+................................................YY",
"YY11<2111,;@..................................................YY",
"YYY11111>$X..................................................YYY",
"YYY112<-+....................................................YYY",
"YYY11>$......................................................YYY",
"YYYY-+......................................................YYYY",
"YYYYY......................XX..............................YYYYY",
"YYYYY......................................................YYYYY",
"YYYYYY....................................................YYYYYY",
"YYYYYYY.............................X........X...........YYYYYYY",
"YYYYYYY..................................................YYYYYYY",
"YYYYYYYY................................................YYYYYYYY",
"YYYYYYYYY..............................................YYYYYYYYY",
"YYYYYYYYYY..........X.................................YYYYYYYYYY",
"YYYYYYYYYYY..........................................YYYYYYYYYYY",
"YYYYYYYYYYYYY......................................YYYYYYYYYYYYY",
"YYYYYYYYYYYYYY........................X...........YYYYYYYYYYYYYY",
"YYYYYYYYYYYYYYYY................................YYYYYYYYYYYYYYYY",
"YYYYYYYYYYYYYYYYY....X.........X...............YYYYYYYYYYYYYYYYY",
"YYYYYYYYYYYYYYYYYYYY........................YYYYYYYYYYYYYYYYYYYY",
"YYYYYYYYYYYYYYYYYYYYYY....................YYYYYYYYYYYYYYYYYYYYYY",
"YYYYYYYYYYYYYYYYYYYYYYYYYY............YYYYYYYYYYYYYYYYYYYYYYYYYY"
};
