/* XPM */
static char *bitmark32[] = {
/* columns rows colors chars-per-pixel */
"32 32 193 2 ",
"   c #2D0062",
".  c #2E0062",
"X  c #2F0063",
"o  c #300064",
"O  c #310065",
"+  c #320065",
"@  c #320066",
"#  c #330066",
"$  c #330166",
"%  c #340166",
"&  c #340167",
"*  c #340267",
"=  c #350267",
"-  c #350368",
";  c #360368",
":  c #350468",
">  c #370669",
",  c #380A6A",
"<  c #3B0A6C",
"1  c #3F0F6F",
"2  c #411170",
"3  c #401270",
"4  c #451774",
"5  c #4D2179",
"6  c #4F247B",
"7  c #50257B",
"8  c #52267C",
"9  c #52267D",
"0  c #52277D",
"q  c #53287E",
"w  c #53297E",
"e  c #54297E",
"r  c #542A7F",
"t  c #562C80",
"y  c #5D3683",
"u  c #5B3284",
"i  c #5D3684",
"p  c #5D3784",
"a  c #5E3784",
"s  c #5E3685",
"d  c #5E3785",
"f  c #5F3785",
"g  c #5F3786",
"h  c #5E3687",
"j  c #5F3885",
"k  c #5F3886",
"l  c #5F3986",
"z  c #5F3887",
"x  c #603887",
"c  c #603987",
"v  c #613987",
"b  c #603A87",
"n  c #613A87",
"m  c #613B87",
"M  c #603988",
"N  c #613A88",
"B  c #613B88",
"V  c #623B88",
"C  c #623B89",
"Z  c #623C89",
"A  c #623D89",
"S  c #633D89",
"D  c #633D8A",
"F  c #643D8A",
"G  c #643E8A",
"H  c #643F8A",
"J  c #653E8B",
"K  c #663F8C",
"L  c #65408B",
"P  c #66418C",
"I  c #68448D",
"U  c #6A458E",
"Y  c #6C4890",
"T  c #6D4991",
"R  c #6D4A91",
"E  c #704D93",
"W  c #735195",
"Q  c #735096",
"!  c #765498",
"~  c #775698",
"^  c #79589A",
"/  c #7D5E9D",
"(  c #7F609E",
")  c #7F609F",
"_  c #8061A0",
"`  c #8161A0",
"'  c #8162A0",
"]  c #8264A1",
"[  c #8568A2",
"{  c #876AA4",
"}  c #886BA5",
"|  c #8C6FA8",
" . c #8F73AA",
".. c #9075AB",
"X. c #9176AC",
"o. c #9277AD",
"O. c #947AAF",
"+. c #987EB1",
"@. c #9981B2",
"#. c #9D84B5",
"$. c #9E86B5",
"%. c #9E86B6",
"&. c #A189B8",
"*. c #A48EBA",
"=. c #A58FBB",
"-. c #A792BC",
";. c #A994BE",
":. c #AC97C1",
">. c #AD9AC1",
",. c #AE9AC2",
"<. c #B09DC3",
"1. c #B19EC5",
"2. c #B29FC4",
"3. c #B5A2C7",
"4. c #B5A4C7",
"5. c #B6A4C7",
"6. c #BAA9CB",
"7. c #BAAACB",
"8. c #BBAACB",
"9. c #BBAACC",
"0. c #BBABCC",
"q. c #BCACCD",
"w. c #BEADCE",
"e. c #BFAFCF",
"r. c #C2B3D1",
"t. c #C3B5D2",
"y. c #C5B7D2",
"u. c #C5B8D3",
"i. c #C6B9D4",
"p. c #C7BAD5",
"a. c #C8BBD5",
"s. c #C9BDD6",
"d. c #CABDD6",
"f. c #CBBED8",
"g. c #D1C6DB",
"h. c #D1C6DD",
"j. c #D3C8DD",
"k. c #D3C9DE",
"l. c #D4CADE",
"z. c #D4CBDE",
"x. c #D6CDDF",
"c. c #D7CEE1",
"v. c #D8CEE1",
"b. c #D8CFE1",
"n. c #D9D0E2",
"m. c #DAD1E2",
"M. c #DAD2E2",
"N. c #DDD5E5",
"B. c #DED6E5",
"V. c #DED7E6",
"C. c #DFD8E6",
"Z. c #E0D9E8",
"A. c #E2DCE9",
"S. c #E5DFEC",
"D. c #E7E3EC",
"F. c #E8E3ED",
"G. c #EAE5EF",
"H. c #EBE6EF",
"J. c #EBE7F0",
"K. c #ECE8F1",
"L. c #EDEAF1",
"P. c #EDE9F2",
"I. c #EFEBF3",
"U. c #EFECF3",
"Y. c #F0ECF3",
"T. c #F0EEF3",
"R. c #F1EEF3",
"E. c #F1EEF4",
"W. c #F1EFF4",
"Q. c #F2EFF5",
"!. c #F2F0F5",
"~. c #F3F1F5",
"^. c #F4F2F6",
"/. c #F5F3F6",
"(. c #F5F3F7",
"). c #F6F4F7",
"_. c #F6F4F8",
"`. c #F7F6F8",
"'. c #F9F8FA",
"]. c #F9F9FA",
"[. c #FAF9FB",
"{. c gray98",
"}. c #FBFAFB",
"|. c #FBFBFB",
" X c #FBFAFC",
".X c #FCFBFD",
"XX c #FDFDFD",
"oX c #FDFDFE",
"OX c #FEFEFE",
"+X c #FEFFFE",
"@X c #FFFFFE",
"#X c gray100",
"$X c None",
/* pixels */
"$X$X$X$X$X$X$X$X$X$X$X$Xy y y y i i i i $X$X$X$X$X$X$X$X$X$X$X$X",
"$X$X$X$X$X$X$X$X$Xy y y y i i i i i i p a a p $X$X$X$X$X$X$X$X$X",
"$X$X$X$X$X$X$Xy y y y i i i i i a y p p x p a a p $X$X$X$X$X$X$X",
"$X$X$X$X$X$Xy y i i i i i i p p a x p p p p p a x x $X$X$X$X$X$X",
"$X$X$X$X$Xi i i y i i p a a a x p p x p p x x b p B p $X$X$X$X$X",
"$X$X$X$Xi i i i a a p p a p a p x p p p a x p x B p B p $X$X$X$X",
"$X$X$Xi i i i p a a x p p p a p i p x x x x p x i B p S x $X$X$X",
"$X$Xi p p p p p x p p p x p x p x x x p p x m p x B x m x x $X$X",
"$X$Xp x p x p p p y p p x p m x B i b p l l m x x B x B x x $X$X",
"$Xp a y p p p x x x x x x p p x i B p b m x x x B p x B B B B $X",
"$Xi p x a a x p a x x p p x p x B B b b x x x m B B B B B B B $X",
"$Xx p i x a x x m x x m m x x x x B S p m m x x x B B B B V V $X",
"p x a x p L >.u.u.u.u.u.u.5.~ R 9.p.*.S B B B L =.a.9.Y g B V V ",
"x x x x p E D.@X`.T.T.U.`.@Xp.[ (.@X~.X.i B K 1.[.@XY.;.X.K S K ",
"p p x m S [ ~.`.$./ ( / <.@Xg.$.}..X@XV.Q P 3.'.@X@X{.{.t.t 7 5 ",
"x x p @.x.C.{.{.N.j.z.z.D.~.X.<.@XJ.J.@Xr.9..XZ.J.@X1.K q % # # ",
"x x i -.n.P.@XE.v.v.c.n._.U.] p.@Xe.| _.oX@Xz.Q S.@X&.h 3 # * # ",
"x x B K I p.@Xj._ / _ } A.[. .b.@X+.: >.@Xh.0 b (.@X[.I.b o # # ",
"x m B B I C.@X'.!.E.E.(.@Xf.K G.@X^ X 6 >.t X _ @XP.O._ 3 o # # ",
"m x B p R w.d.d.p.w.9.9.$.5 q 5.3.q # # : # o ! w.$., o * # # # ",
"$XB B B S S b 0 1 - % % # # # # # # # # # # # * - - # # # # # $X",
"$XS B B B q 1 # # # # # # # # # # # # # # # # # # # # # # # # $X",
"$XB S u 4 : # # # # # # # # # # # # # # # # # # # # # # # # # $X",
"$X$X0 < # # # # # # # # # # # # # # # # # # # # # # # # # # $X$X",
"$X$X% # # # # # # # # # # # # # # # # # # # # # # # # # # # $X$X",
"$X$X$X# # # # # # # # # # # # # # # # # # # # # # # # # # $X$X$X",
"$X$X$X$X# # # # # # # # # # # # # # # # # # # # # # # # $X$X$X$X",
"$X$X$X$X$X# # # # # # # # # # # # # # # # # # # # # # $X$X$X$X$X",
"$X$X$X$X$X$X# # # # # # # # # # # # # # # # # # # # $X$X$X$X$X$X",
"$X$X$X$X$X$X$X# # # # # # # # # # # # # # # # # # $X$X$X$X$X$X$X",
"$X$X$X$X$X$X$X$X$X# # # # # # # # # # # # # # $X$X$X$X$X$X$X$X$X",
"$X$X$X$X$X$X$X$X$X$X$X$X# # # # # # # # $X$X$X$X$X$X$X$X$X$X$X$X"
};
