/* XPM */
static char *bitmark64[] = {
/* columns rows colors chars-per-pixel */
"64 64 192 2 ",
"   c #2E0063",
".  c #300064",
"X  c #310064",
"o  c #310065",
"O  c #320065",
"+  c #320066",
"@  c #330066",
"#  c #330166",
"$  c #340166",
"%  c #340167",
"&  c #340267",
"*  c #350267",
"=  c #340367",
"-  c #350368",
";  c #360368",
":  c #360468",
">  c #370569",
",  c #380669",
"<  c #38066A",
"1  c #39076A",
"2  c #39086B",
"3  c #3A086B",
"4  c #3A096B",
"5  c #3A0C6B",
"6  c #3A096C",
"7  c #3B096C",
"8  c #3B0A6C",
"9  c #3C0B6C",
"0  c #3C0B6D",
"q  c #3C0C6D",
"w  c #3D0C6D",
"e  c #3D0D6E",
"r  c #3E0D6E",
"t  c #3E0E6E",
"y  c #3F0E6F",
"u  c #3F0F6F",
"i  c #3F106F",
"p  c #40106F",
"a  c #401070",
"s  c #411170",
"d  c #411270",
"f  c #411271",
"g  c #421271",
"h  c #421371",
"j  c #431371",
"k  c #431472",
"l  c #441572",
"z  c #441573",
"x  c #451673",
"c  c #451773",
"v  c #451774",
"b  c #461774",
"n  c #461874",
"m  c #471874",
"M  c #471875",
"N  c #471975",
"B  c #481A75",
"V  c #481A76",
"C  c #481B76",
"Z  c #491B76",
"A  c #491C76",
"S  c #491C77",
"D  c #4A1C77",
"F  c #4A1D77",
"G  c #4B1D77",
"H  c #4B1D78",
"J  c #4B1E78",
"K  c #4C1E78",
"L  c #4C1F78",
"P  c #4C1F79",
"I  c #4D2079",
"U  c #4D2179",
"Y  c #4D217A",
"T  c #4E217A",
"R  c #4E227A",
"E  c #4F227A",
"W  c #4F227B",
"Q  c #4F237B",
"!  c #50237B",
"~  c #50247B",
"^  c #50247C",
"/  c #50257C",
"(  c #51257C",
")  c #51267C",
"_  c #51267D",
"`  c #52267D",
"'  c #52277D",
"]  c #53277D",
"[  c #53287E",
"{  c #54287E",
"}  c #54297E",
"|  c #54297F",
" . c #542A7F",
".. c #552A7F",
"X. c #552B7F",
"o. c #552B80",
"O. c #562B80",
"+. c #552D80",
"@. c #562C80",
"#. c #572C80",
"$. c #562C81",
"%. c #572C81",
"&. c #572D81",
"*. c #582D81",
"=. c #582E81",
"-. c #582E82",
";. c #582F82",
":. c #592F82",
">. c #593082",
",. c #5A3083",
"<. c #5A3183",
"1. c #5B3183",
"2. c #5B3184",
"3. c #5B3284",
"4. c #5C3384",
"5. c #5C3385",
"6. c #5C3485",
"7. c #5D3485",
"8. c #5D3585",
"9. c #5E3586",
"0. c #5E3686",
"q. c #5F3686",
"w. c #5F3687",
"e. c #5F3787",
"r. c #603787",
"t. c #603887",
"y. c #603888",
"u. c #613988",
"i. c #613A88",
"p. c #613A89",
"a. c #623A89",
"s. c #623B89",
"d. c #633B89",
"f. c #633C8A",
"g. c #643D8A",
"h. c #653E8B",
"j. c #653F8C",
"k. c #663F8C",
"l. c #67408C",
"z. c #69438E",
"x. c #6A448F",
"c. c #704C93",
"v. c #755297",
"b. c #7B5A9C",
"n. c #7F5F9F",
"m. c #9479AF",
"M. c #9980B3",
"N. c #AA95BF",
"B. c #AA95C0",
"V. c #B29FC5",
"C. c #B3A0C6",
"Z. c #B4A1C6",
"A. c #B4A2C7",
"S. c #C2B3D1",
"D. c #CABDD7",
"F. c #CCBFD9",
"G. c #CCC0D9",
"H. c #D0C5DC",
"J. c #D1C6DD",
"K. c #D2C7DD",
"L. c #D2C7DE",
"P. c #D3C8DE",
"I. c #D4C9DF",
"U. c #D5CADF",
"Y. c #D5CBDF",
"T. c #D6CBE0",
"R. c #D6CCE0",
"E. c #D7CDE1",
"W. c #D9CFE2",
"Q. c #D9D0E3",
"!. c #DDD5E6",
"~. c #DED6E6",
"^. c #E1D9E8",
"/. c #E3DCEA",
"(. c #E4DDEA",
"). c #E6DFEC",
"_. c #E6E0EC",
"`. c #ECE7F0",
"'. c #EDE9F2",
"]. c #EEEAF2",
"[. c #EFEBF3",
"{. c #F0ECF3",
"}. c #F0ECF4",
"|. c #F0EDF4",
" X c #F1EDF4",
".X c #F2EFF6",
"XX c #F4F2F7",
"oX c #FBFAFC",
"OX c #FCFBFC",
"+X c #FEFEFE",
"@X c gray100",
"#X c None",
/* pixels */
"#X#X#X#X#X#X#X#X#X#X#X#X#X3.,.;.&.O.] ] ^ R #X#X#X#X#X#X#X#X#X#X#X#X#X#X#X#X#X#X#X#X#X#X#X#X#X#X#X#X#X#X#X#X#X#X#X#X#X#X#X#X#X#X",
"#X#X#X#X#X#X#X#X#X#X#X3.4.,.;.&.&.] ] ` ^ U I J F #X#X#X#X#X#X#X#X#X#X#X#X#X#X#X#X#X#X#X#X#X#X#X#X#X#X#X#X#X#X#X#X#X#X#X#X#X#X#X",
"#X#X#X#X#X#X#X#X#Xe.e.e.1.;.;.O.o.` ` R I I J C M b z #X#X#X#X#X#X#X#X#X#X#X#X#X#X#X#X#X#X#X#X#X#X#X#X#X#X#X#X#X#X#X#X#X#X#X#X#X",
"#X#X#X#X#X#X#Xd.t.e.4.,.;.&.O.{ ` ` R K J J M M b b d d a #X#X#X#X#X#X#X#X#X#X#X#X#X#X#X#X#X#X#X#X#X#X#X#X#X#X#X#X#X#X#X#X#X#X#X",
"#X#X#X#X#X#Xd.t.e.e.,.;.;.;.{ ` ` R K J F M b b h h a y e 9 #X#X#X#X#X#X#X#X#X#X#X#X#X#X#X#X#X#X#X#X#X#X#X#X#X#X#X#X#X#X#X#X#X#X",
"#X#X#X#X#Xd.r.e.4.,.,.;.{ { ` ( U U K J M M z b d d a e 9 9 1 #X#X#X#X#X#X#X#X#X#X#X#X#X#X#X#X#X#X#X#X#X#X#X#X#X#X#X#X#X#X#X#X#X",
"#X#X#X#Xd.d.e.e.4.,.,.X.{ ] ( ! U J F M M z h d a e e 9 7 7 1 % #X#X#X#X#X#X#X#X#X#X#X#X#X#X#X#X#X#X#X#X#X#X#X#X#X#X#X#X#X#X#X#X",
"#X#X#Xd.d.e.e.3.,.;.&.{ ] ` U U F F F n M h d p e e 9 1 1 % % % #X#X#X#X#X#X#X#X#X#X#X#X#X#X#X#X#X#X#X#X#X#X#X#X#X#X#X#X#X#X#X#X",
"#X#X#Xd.t.e.e.,.,.X.{ { ] / U K J M M b h d d e e 7 7 1 : % # # % #X#X#X#X#X#X#X#X#X#X#X#X#X#X#X#X#X#X#X#X#X#X#X#X#X#X#X#X#X#X#X",
"#X#Xd.s.t.e.,.,.;.X.{ ` / U K F B M b h d i e 7 7 3 : % % # # # # # #X#X#X#X#X#X#X#X#X#X#X#X#X#X#X#X#X#X#X#X#X#X#X#X#X#X#X#X#X#X",
"#X#Xt.t.e.,.,.&.{ { ] ` U K F F b d d d d e e 7 1 : % % % # # # # # #X#X#X#X#X#X#X#X#X#X#X#X#X#X#X#X#X#X#X#X#X#X#X#X#X#X#X#X#X#X",
"#Xd.t.t.4.,.&.&.X.{ ( U U J M B &.d.e.J q 7 7 1 : : % # # # # # # # # #X#X#X#X#X#X#X#X#X#X#X#X#X#X#X#X#X#X#X#X#X#X#X#X#X#X#X#X#X",
"#Xd.e.e.3.,.&.o.` ` ^ U J B z.V.^.[.[.R.M.K 1 : : % # # # # # # # # # #X#X#X#X#X#X#X#X#X#X#X#X#X#X#X#X#X#X#X#X#X#X#X#X#X#X#X#X#X",
"d.t.e.3.3.&.&.] ] ` U K F n.).@X@X@X@X@X@XF.O.# + % # # # # # # # # # #X#X#X#X#X#X#X#X#X#X#X#X#X#X#X#X#X#X#X#X#X#X#X#X#X#X#X#X#X",
"e.t.4.,.,.&.O.] ` R U B x.).@X@X@X@X@X@X@X@XS.i # # # # # # # # # # # #X#X#X#X#X#X#X#X#X#X#X#X#X#X#X#X#X#X#X#X#X#X#X#X#X#X#X#X#X",
"e.t.4.,.&.&.] ` ^ U J F C.@X@X@X@X@X@X@X@X@XoXb.o # # # # # # # # # # # #X#X#X#X#X#X#X#X#X#X#X#X#X#X#X#X#X#X#X#X#X#X#X#X#X#X#X#X",
"e.e.3.,.X.{ { ( U U F ;.^.@X@X@X@X@X@X@X@X@X@XZ.+ + + # # # # # # # # # #X#X#X#X#X#X#X#X#X#X#X#X#X#X#X#X#X#X#X#X#X#X#X#X#X#X#X#X",
"e.3.,.&.&.{ ` / U J M j.[.@X@X@X@X@X@X@X@X@X@XF.7 # % # # # # # # # # # #X#X#X#X#X#X#X#X#X#X#X#X#X#X#X#X#X#X#X#X#X#X#X#X#X#X#X#X",
"3.3.&.&.O.] / U K F M l.}.@X@X@X@X@X@X@X@X@X@XH.e # # % # # # # # # # # #X#X#X#X#X#X#X#X#X#X#X#X#X#X#X#X#X#X#X#X#X#X#X#X#X#X#X#X",
"4.3.&.&.] ` U U F F z l.}.@X@X@X@X@X@X@X@X@X@XH.7 # # + # # # # # # # # #X#X#X#X#X#X#X#X#X#X#X#X#X#X#X#X#X#X#X#X#X#X#X#X#X#X#X#X",
"3.;.&.&.] ^ U U F M h h.}.@X@X@X@X@X@X@X@X@X@XH.q + + + # # # # # # # # #X#X#X#X#X#X#X#X#X#X#X#X#X#X#X#X#X#X#X#X#X#X#X#X#X#X#X#X",
"3.&.&.] ` ^ U J F M h h.}.@X@X@X@X@X@X@X@X@X@XH.q + + + # # # # # # # # #X#X#X#X#X#X#X#X#X#X#X#X#X#X#X#X#X#X#X#X#X#X#X#X#X#X#X#X",
",.&.O.] ` R I J B M d d.}.@X@X@X@X@X@X@X@X@X@XH.q + # # # # # # # # # # #X#X#X#X#X#X#X#X#X#X#X#X#X#X#X#X#X#X#X#X#X#X#X#X#X#X#X#X",
"&.&.O.] R U J C M b d d.}.@X@X@X@X@X@X@X@X@X@XH.q o # # # # # # # # # # #X#X#X#X#X#X#X#X#X#X#X#X#X#X#X#X#X#X#X#X#X#X#X#X#X#X#X#X",
"&.&.{ ] ^ U J B M h d d.}.@X@X@X@X@X@X@X@X@X@XH.e # # # # # # # # # # # #X#X#X#X#X#X#X#X#X#X#X#X#X#X#X#X#X#X#X#X#X#X#X#X#X#X#X#X",
"&.{ ] ( U U B B M h e d.}.@X@X@X@X@X@X@X@X@X@XH.7 # # # # # # # # # # # #X#X#X#X#X#X#X#X#X#X#X#X#X#X#X#X#X#X#X#X#X#X#X#X#X#X#X#X",
"&.X.] / U J C M b d e e.}.@X@X@X@X@X@X@X@X@X@XH.7 # # # # # # # # # # # #X#X#X#X#X#X#X#X#X#X#X#X#X#X#X#X#X#X#X#X#X#X#X#X#X#X#X#X",
"X.] ^ / U F C n z d e e.}.@X@X@X@X@X@X@X@X@X@XH.q # # # # # # # # # # # #X#X#X#X#X#X#X#X#X#X#X#X#X#X#X#X#X#X#X#X#X#X#X#X#X#X#X#X",
"] ] ^ / I C C c h d 7 e.}.@X@X@X@X@X@X@X@X@X@XH.q # # # # # # # # # # # # # # # # # # # # # # # # #X#X#X#X#X#X#X#X#X#X#X#X#X#X#X",
"&.] ^ I J S M M d d 7 e.}.@X@X@X@X@X@X@X@X@X@XH.q # # # # # # # # # # # # # # # # # # # # # # # # # # # # #X#X#X#X#X#X#X#X#X#X#X",
"] ] ^ I J C M h d a 7 e.}.@X@X@X@X@X@X@X@X@X@XH.q # # # # # # # # # # # # # # # # # # # # # # # # # # # # # # #X#X#X#X#X#X#X#X#X",
"] ] ^ I J M M h d a 7 4.}.@X@X@X@X@X@X@X@X@X@XH.q o # # # # # # # # # # # # # # # # # # # # # # # # # # # # # # #X#X#X#X#X#X#X#X",
"` ` U J F F M h d e 1 e.}.@X@X@X@X@X@X@X@X@X@XH.q o # # # # # # # # # # # # # # # # # # # # # # # # # # # # # # # # #X#X#X#X#X#X",
"{ ` R U B M z h a e 1 4.}.@X@X@X@X@X@X@X@X@X@XH.q # # # # # # # # # # # # # # # # # # # # # # # # # # # # # # # # # # #X#X#X#X#X",
"` ` U J F b b d a e 1 3.}.@X@X@X@X@X@X@X@X@X@XH.q # # # # # # # # # # # # # # # # # # # # # # # # # # # # # # # # # # # #X#X#X#X",
"` U U J B M z d a 9 1 3.}.@X@X@X@X@X@X@X@X@X@XH.q o # # # # # # # # # # # # # # # # # # # # # # # # # # # # # # # # # # # #X#X#X",
"` / K J M M h d y e 1 3.}.@X@X@X@X@X@X@X@X@X@XH.q o + + # # # # # # # # # # # # + % # # # # # # # # # # # # # # # # # # # #X#X#X",
"` ^ U F M b z d y 9 : 3.}.@X@X@X@X@X@X@X@X@X@XH.q # + + # # # # # # # # # # # # + + # # # # # # # # # # # # # # # # # # # # #X#X",
"` U J J M b d i e 7 1 ,.}.@X@X@X@X@X@X@X@X@X@XH.7 # + + # # # # o # # # # # # # + + + + # # # # # # # # # # # # # # # # # # #X#X",
",.&.{ ` ` U J F M b u d.}.@X@X@X@X@X@X@X@X@X@XK.M e 7 e q q 7 e q 7 q q q q q 7 q q q q q 7 7 + # # # # # # # # # # # # # # # #X",
"R.W.T.T.Y.Y.K.Y.K.K.H.Q.oX@X@X@X@X@X@X@X@X@X@XXXH.H.H.H.H.H.H.H.H.H.H.H.H.H.H.H.H.H.H.H.H.H.G.C.b.i # # # # # # # # # # # # # #X",
"@X@X@X@X@X@X@X@X@X@X@X@X@X@X@X@X@X@X@X@X@X@X@X@X@X@X@X@X@X@X@X@X@X@X@X@X@X@X@X@X@X@X@X@X@X@X@X@XoXS.( # # # # # # # # # # # # #X",
"@X@X@X@X@X@X@X@X@X@X@X@X@X@X@X@X@X@X@X@X@X@X@X@X@X@X@X@X@X@X@X@X@X@X@X@X@X@X@X@X@X@X@X@X@X@X@X@X@X@XD.n # # # # # # # # # # # # ",
"@X@X@X@X@X@X@X@X@X@X@X@X@X@X@X@X@X@X@X@X@X@X@X@X@X@X@X@X@X@X@X@X@X@X@X@X@X@X@X@X@X@X@X@X@X@X@X@X@X@X@Xm.  # # # # # # # # # # # ",
"@X@X@X@X@X@X@X@X@X@X@X@X@X@X@X@X@X@X@X@X@X@X@X@X@X@X@X@X@X@X@X@X@X@X@X@X@X@X@X@X@X@X@X@X@X@X@X@X@X@X@XK.i # # # # # # # # # # # ",
"@X@X@X@X@X@X@X@X@X@X@X@X@X@X@X@X@X@X@X@X@X@X@X@X@X@X@X@X@X@X@X@X@X@X@X@X@X@X@X@X@X@X@X@X@X@X@X@X@X@X@X`.` # # # # # # # # # # # ",
"@X@X@X@X@X@X@X@X@X@X@X@X@X@X@X@X@X@X@X@X@X@X@X@X@X@X@X@X@X@X@X@X@X@X@X@X@X@X@X@X@X@X@X@X@X@X@X@X@X@X@X[.{ # # # # # # # # # # # ",
"@X@X@X@X@X@X@X@X@X@X@X@X@X@X@X@X@X@X@X@X@X@X@X@X@X@X@X@X@X@X@X@X@X@X@X@X@X@X@X@X@X@X@X@X@X@X@X@X@X@X@X!.z # # # # # # # # # # # ",
"@X@X@X@X@X@X@X@X@X@X@X@X@X@X@X@X@X@X@X@X@X@X@X@X@X@X@X@X@X@X@X@X@X@X@X@X@X@X@X@X@X@X@X@X@X@X@X@X@X@X@XN.% # # # # # # # # # # # ",
"@X@X@X@X@X@X@X@X@X@X@X@X@X@X@X@X@X@X@X@X@X@X@X@X@X@X@X@X@X@X@X@X@X@X@X@X@X@X@X@X@X@X@X@X@X@X@X@X@X@X/.&.  # # # # # # # # # # # ",
"@X@X@X@X@X@X@X@X@X@X@X@X@X@X@X@X@X@X@X@X@X@X@X@X@X@X@X@X@X@X@X@X@X@X@X@X@X@X@X@X@X@X@X@X@X@X@X@X@X/.c.# # # # # # # # # # # # # ",
"}.}.}.[.}.{.{.{.}.}.{.}.@X@X@X@X@X@X@X@X@X@X@XoX}.{.}.}.{.{.].].{.{.{.{.{.{.{. X{.{.{.{.{.{.[.~.N.&.# # # # # # # # # # # # # #X",
"&.&.;.&.&.&.X.;.&.&.X.v.}.@X@X@X@X@X@X@X@X@X@XR.t.&.&.&.&.&.;.;.&.;.X.;.X.;.X.X.&.;.X.;.&.&.{ z # # # # # # # # # # # # # # # #X",
". # . . . . . .   #   X.}.@X@X@X@X@X@X@X@X@X@XH.5 o #   .   . . . . . . . . O O . . . . . # . # # # # # # # # # # # # # # # #X#X",
"# # # # % # # # # # . &.}.@X@X@X@X@X@X@X@X@X@XH.q # # # # # # # % O % % % O % O % O % % # # # # # # # # # # # # # # # # # # #X#X",
"# # # # % # # # # # # &.}.@X@X@X@X@X@X@X@X@X@XH.q # # # # # # # O % O % O % O % O % O % # # # # # # # # # # # # # # # # # #X#X#X",
"# # # # # # # # # # . ;.].@X@X@X@X@X@X@X@X@X@XH.9 # % O % O % O % O % O % O % O # # # # # # # # # # # # # # # # # # # # # #X#X#X",
"# # # # # # # # # # # { {.@X@X@X@X@X@X@X@X@X@XH.9 # O % O % O % O % O % O % O % # # # # # # # # # # # # # # # # # # # # #X#X#X#X",
"# # # # # # # # # # . ;.}.@X@X@X@X@X@X@X@X@X@XH.e # % O % O % O % O % O % O % O # # # # # # # # # # # # # # # # # # # #X#X#X#X#X",
"# # # # # # # # # # . ;.}.@X@X@X@X@X@X@X@X@X@XH.3 # O % O % O % O % O % O % O % # # # # # # # # # # # # # # # # # # #X#X#X#X#X#X",
"# # # # # # # # # # . &.}.@X@X@X@X@X@X@X@X@X@XH.q # # # % O % O % O % O % O % O # # # # # # # # # # # # # # # # # #X#X#X#X#X#X#X",
"# # # # # # # # # % . &.}.@X@X@X@X@X@X@X@X@X@XH.q # # # O % O % O % O % O % O % # # # # # # # # # # # # # # # #X#X#X#X#X#X#X#X#X",
"# # # # # # # # # # . &.}.@X@X@X@X@X@X@X@X@X@XH.7 # # # % O % O % O % O % O % O # # # # # # # # # # # # # #X#X#X#X#X#X#X#X#X#X#X",
"# # # # # # # # # # # &.}.@X@X@X@X@X@X@X@X@X@XH.q # # # O % O % O % O % O % O % # # # # # # # # # # # #X#X#X#X#X#X#X#X#X#X#X#X#X"
};
