/* XPM */
static char *bitmark16[] = {
/* columns rows colors chars-per-pixel */
"16 16 91 1 ",
"  c #310064",
". c #310165",
"X c #320065",
"o c #320066",
"O c #330066",
"+ c #340267",
"@ c #350468",
"# c #360469",
"$ c #39086A",
"% c #3A096C",
"& c #3B096C",
"* c #3B0B6C",
"= c #3E0E6E",
"- c #411170",
"; c #421371",
": c #421471",
"> c #441673",
", c #51257C",
"< c #51267C",
"1 c #5A3183",
"2 c #5D3683",
"3 c #5C3584",
"4 c #5D3684",
"5 c #5D3784",
"6 c #5E3784",
"7 c #5E3785",
"8 c #5F3785",
"9 c #5F3786",
"0 c #5F3885",
"q c #5F3886",
"w c #5F3986",
"e c #603887",
"r c #603987",
"t c #603A87",
"y c #613A87",
"u c #613A88",
"i c #623B88",
"p c #643E8A",
"a c #653F8A",
"s c #65408B",
"d c #66408B",
"f c #66418C",
"g c #67418D",
"h c #67438C",
"j c #68438C",
"k c #6A468E",
"l c #6E4A93",
"z c #714F93",
"x c #714E94",
"c c #735195",
"v c #8162A0",
"b c #967CB0",
"n c #977DB1",
"m c #977EB0",
"M c #987EB2",
"N c #9980B1",
"B c #A189B8",
"V c #A38DB9",
"C c #A38CBA",
"Z c #A690BC",
"A c #AD9AC1",
"S c #B19EC5",
"D c #B3A1C6",
"F c #B8A7C9",
"G c #BBABCB",
"H c #BCABCC",
"J c #BCACCC",
"K c #BDACCD",
"L c #C0B1CF",
"P c #C0B0D0",
"I c #C1B2D0",
"U c #C3B4D1",
"Y c #C4B6D2",
"T c #C6B9D3",
"R c #CABED7",
"E c #CCC0D8",
"W c #CDC0D9",
"Q c #CEC2D9",
"! c #D0C5DB",
"~ c #D6CCE0",
"^ c #D8CEE1",
"/ c #DFD8E6",
"( c #E2DBE9",
") c #E3DCEA",
"_ c #E7E2ED",
"` c #E8E3EE",
"' c #EFECF2",
"] c #F0EDF3",
"[ c #F1EEF4",
"{ c #F7F5F9",
"} c None",
/* pixels */
"}}}}}224442}}}}}",
"}}}2244455r54}}}",
"}}4422r554r2rr}}",
"}454r444rr8r5rr}",
"}545r45rr8rrrrr}",
"558ajjsrfurusa8a",
"r2kTRTWNWVrv!Sxu",
"4cA]YF/G[_Z~{Pj-",
"5cY'JL)JWV)b`S:O",
"u5N~UIBNn:13Kl$O",
"uit<-=@$$OO@*OOO",
"}<$OOOOOOOOOOOO}",
"}+OOOOOOOOOOOOO}",
"}}OOOOOOOOOOOO}}",
"}}}OOOOOOOOOO}}}",
"}}}}}OOOOOO}}}}}"
};
