/* XPM */
static char *bitmark128[] = {
/* columns rows colors chars-per-pixel */
"128 128 76 1 ",
"  c #2F0063",
". c #330066",
"X c #370569",
"o c #380769",
"O c #3B0A6C",
"+ c #3F106F",
"@ c #40106F",
"# c #431472",
"$ c #461974",
"% c #4A1C76",
"& c #4C1F78",
"* c #4E227A",
"= c #51267D",
"- c #54297F",
"; c #572D81",
": c #582E81",
"> c #5E3784",
", c #5F3886",
"< c #603987",
"1 c #623B88",
"2 c #67418C",
"3 c #6A458E",
"4 c #6B4690",
"5 c #6D4A91",
"6 c #714E94",
"7 c #735196",
"8 c #765598",
"9 c #78579A",
"0 c #7D5D9D",
"q c #7F609E",
"w c #81619F",
"e c #8364A1",
"r c #8668A3",
"t c #8A6DA6",
"y c #8C70A7",
"u c #8D72A9",
"i c #9176AC",
"p c #947AAE",
"a c #977EB1",
"s c #987FB2",
"d c #9C83B4",
"f c #9F88B6",
"g c #A089B7",
"h c #A38DBA",
"j c #A792BD",
"k c #A994BD",
"l c #AC97C0",
"z c #AE9BC2",
"x c #B19EC4",
"c c #B4A1C6",
"v c #B7A6C9",
"b c #BCACCD",
"n c #BFB1CE",
"m c #C1B2CF",
"M c #C4B5D3",
"N c #C6B9D3",
"B c #C9BCD6",
"V c #CCBFD8",
"C c #CEC2DA",
"Z c #D1C5DB",
"A c #D4CADE",
"S c #D7CDE1",
"D c #D8CEE1",
"F c #DCD4E4",
"G c #DFD8E7",
"H c #E3DDEA",
"J c #E7E1EC",
"K c #E9E4EE",
"L c #ECE6F1",
"P c #EEEAF2",
"I c #F1EEF4",
"U c #F4F2F6",
"Y c #F7F5F8",
"T c #F8F7F9",
"R c #FDFDFD",
"E c None",
/* pixels */
"EEEEEEEEEEEEEEEEEEEEEEEEEEEEEEEEEEEEEEEEEEEEEEEEEEEEEEE,>>>>;>>>>>>>>>>>>EEEEEEEEEEEEEEEEEEEEEEEEEEEEEEEEEEEEEEEEEEEEEEEEEEEEEEE",
"EEEEEEEEEEEEEEEEEEEEEEEEEEEEEEEEEEEEEEEEEEEEEEEEEE,,<,-,>>>>>>>>>>>>>>>>>>>>2>EEEEEEEEEEEEEEEEEEEEEEEEEEEEEEEEEEEEEEEEEEEEEEEEEE",
"EEEEEEEEEEEEEEEEEEEEEEEEEEEEEEEEEEEEEEEEEEEEEE>><1,-,,1,>;>>>>>>>>->>;>>>>>>1-1,-1EEEEEEEEEEEEEEEEEEEEEEEEEEEEEEEEEEEEEEEEEEEEEE",
"EEEEEEEEEEEEEEEEEEEEEEEEEEEEEEEEEEEEEEEEEEE1>>>>,-,,,,-,>>>>>>;>>>>>>>>>>>>>,>,,,,<>1EEEEEEEEEEEEEEEEEEEEEEEEEEEEEEEEEEEEEEEEEEE",
"EEEEEEEEEEEEEEEEEEEEEEEEEEEEEEEEEEEEEEEE1,>>>>>>>>>>>>>-;>>>>>>>>>>>>>>>>>>>,>>>>>>>>,>,EEEEEEEEEEEEEEEEEEEEEEEEEEEEEEEEEEEEEEEE",
"EEEEEEEEEEEEEEEEEEEEEEEEEEEEEEEEEEEEEE2->,>>>>>>>>->>>>,>>>>>>>>>>>->>;>>>>>>>>>>>>>>>>><1EEEEEEEEEEEEEEEEEEEEEEEEEEEEEEEEEEEEEE",
"EEEEEEEEEEEEEEEEEEEEEEEEEEEEEEEEEEEE2<>>>,,>>>>>>>>>>>>>>>>>;>>>>>>>>>>>>>>>>>>>>>>>>>>>,,->EEEEEEEEEEEEEEEEEEEEEEEEEEEEEEEEEEEE",
"EEEEEEEEEEEEEEEEEEEEEEEEEEEEEEEEEE1>>,>>>->>>->>>>>>>>>>>>>>>>>>>>>>>>>>>>>>>>>>>>>>>>>>-22,1,EEEEEEEEEEEEEEEEEEEEEEEEEEEEEEEEEE",
"EEEEEEEEEEEEEEEEEEEEEEEEEEEEEEEE>>>>>>>>>>>>>>;>>>>>>>>>>;>>>>>>>>>>>>>>>>>>>>>>>>>>>>>>>,>,,>>,EEEEEEEEEEEEEEEEEEEEEEEEEEEEEEEE",
"EEEEEEEEEEEEEEEEEEEEEEEEEEEEEE>>>>>>>>>>>>>;>>>>>>>>>>>>>>>>>>>;>>>>>>>>>>>>>>>>>>>>>>><>>,>>,>>,,EEEEEEEEEEEEEEEEEEEEEEEEEEEEEE",
"EEEEEEEEEEEEEEEEEEEEEEEEEEEEE>>>->>>>>->>>>>>>>>>>>>>>>>>>>>>>>>>>>>>>>>>>>>>>>>>>>>>>>>>,>,,>>>>,,EEEEEEEEEEEEEEEEEEEEEEEEEEEEE",
"EEEEEEEEEEEEEEEEEEEEEEEEEEE>><->>>>>>>>>>>>>>>>>>->>>>>>>>>>>>>>>>>>>>>>>>>>>>>>>>,>>>>>>>>,>,<>>,,,,EEEEEEEEEEEEEEEEEEEEEEEEEEE",
"EEEEEEEEEEEEEEEEEEEEEEEEEE>>><,>>>->>>>>>>>>;>>>>>>>>>>>;>>>>>>>>>>>>>>>>>>>>>>>>,>,>>1>,>,>>>>>,>>,>,EEEEEEEEEEEEEEEEEEEEEEEEEE",
"EEEEEEEEEEEEEEEEEEEEEEEEE->>>-1->>>>>>>>>;>>>>>>>>>>->>>>>>>>>>>>>>>>>>>>>>>>>>>,>>>>>>>>>>>>><>>,,>,><EEEEEEEEEEEEEEEEEEEEEEEEE",
"EEEEEEEEEEEEEEEEEEEEEEE,2,,>>,,,>>>>>>>>>>>>>>>>>>>>>>>>>>>>>>>>>>>>>,>>>,>>>>>>>,>>,>>>>,>,>1>>,>,,>><>,EEEEEEEEEEEEEEEEEEEEEEE",
"EEEEEEEEEEEEEEEEEEEEEE,,1-1->1-,>>>>;>>;>>>>>>>;>>>>>>>>>>>>>>>>>>>>>>,,>>>>>>>>,>,,>,,>>>>>>,>>>,>>><><,,EEEEEEEEEEEEEEEEEEEEEE",
"EEEEEEEEEEEEEEEEEEEEE>>-<,>-,,>>>>>>>>>>>>>>>>>>>>>>>>>>>>>>>>>>>>>>>>>>>,>,>>,>>,,>>>>>,-<,><,,,,,,,,,,<>>EEEEEEEEEEEEEEEEEEEEE",
"EEEEEEEEEEEEEEEEEEEE,,>>2->,,,>>>>>>>>>->>>>>>>>>>>>>>>>>>>>>>>>>>>>>>>,>>>>,>>,,>>>>,>,,,<<>>,>,,>,,,,,<<<<EEEEEEEEEEEEEEEEEEEE",
"EEEEEEEEEEEEEEEEEEE<>->>-2-,>,>>>>>>>>>>>>>>>>>>>>>>>>>>,,>>>>,,>>>>>,>,,>,>>>,>>,>>>>>>,,,,>>>>,,,,,,,,><<><EEEEEEEEEEEEEEEEEEE",
"EEEEEEEEEEEEEEEEEE,,>>>>2-1,>,,->>>>>>>>>>>>>>>>>>>>>>,>,,>>>><<>>>>,>,>>>>>>,>,,>,>,,,,,,,,<><<>,,,,,,,<><><<EEEEEEEEEEEEEEEEEE",
"EEEEEEEEEEEEEEEEE,>>>>>>>>>>>>>>>>>>>>>>>>>>>>>>>>>>>>>>,>>,,>,->,>>>>,>>>>>>,>>,,,,,,,,,,,,,,,,,,,,,,,,<<><,,,EEEEEEEEEEEEEEEEE",
"EEEEEEEEEEEEEEEE>>>>:>:>>>>>>>>>>>>>>>>>>>>>>>>>>>>>>,,>>,>>>,>,>>>,,>,>,>,>>>>>>,,,,,,,,,,,,,,,,,,,,,,,><<>,,,,EEEEEEEEEEEEEEEE",
"EEEEEEEEEEEEEEE1>>>>>>>>>>>>>>-,>>>>>>>>>>>>>>>>>>>>>>>>>>>,,>>,>,>>>>>>>>>>>,,,,>,,,,,,,,,,,,,,,,>,,,,,><<>,<,,,EEEEEEEEEEEEEEE",
"EEEEEEEEEEEEEE<->>>>>>>>->>>>>>>>>>>>>>>>>>>>>>>>>>>>,>,>,>>>>,>,>>,>,>>,>,,,,,,>,,,>>,,,,,,,,,,,,,,,,,,<><<,,,,,,EEEEEEEEEEEEEE",
"EEEEEEEEEEEEEE,,>>>>>>>>>>>>>>>>>>>>>>>>>>>>>>>,>>,>>>>>,,,>,>,,>,>,>,>>,,,,,,,,,,,,<><<>><,,,,,,,,,,,,,<><<><,<,1EEEEEEEEEEEEEE",
"EEEEEEEEEEEEE1,1>>>>>>>>>>>>>>>>>>>>>>>>>>>>>,>>>>>,>,,><<>,,>,<,>>>,>,>>,,,,,,,,,,,>1<><<,,,,,,,,,,,,,,<,><<<<,<,1EEEEEEEEEEEEE",
"EEEEEEEEEEEE<-<->>>>>>>>>>>>>>>>,>>,>>>>>>>>,>,>>,>>>>>>,-,,>,><>>,>>,,,,,,,,,,,,,,,>>,,,,,,,,,,,,,,1,1,<<,<<<<<<<,<EEEEEEEEEEEE",
"EEEEEEEEEEE>,,,,>>>>>>>>>>>>>>>>>>>>>>>>>>,>>,>,>>,>,>,>>,>,,>,-,,,,>,,,,,,,,,,,,,,,1,,,,,,,,,,,,,,,,,1,,<<<<<<<<<1,1EEEEEEEEEEE",
"EEEEEEEEEEE>>>>>>>>>>>>>>>>>>>>>>>>>>>>>,,>,,>,>,>,>>>,>1<,,-2,,,,,,,,,,,,,,,,,,,,,,,,,,,,>,,<,,,,,,,,1,<<<,<<<<<<>1,EEEEEEEEEEE",
"EEEEEEEEEE2,>>>>>>>>>>>>>>>>>>>>,>,>>>,>>>,>>>>,>,>,>>,>-,,,2-,,,,,,,,,,,,,,,,,,,,,,,,,>,,<<,,,,,,1,1,,,<<<<<1><<<><1,EEEEEEEEEE",
"EEEEEEEEE2>>>>>>>>>>>>>,>>>>>>>>,>>>,>>,>>>,>,>,,>>>>>>,,,,,,,,,,,,,,,,,,,,,,,,,,,,>,,,1,<,,,,,,<<,1,11,<<1><<>11>1<<<<EEEEEEEEE",
"EEEEEEEEE>>>>>>>>>>>>,>>>>>>>>>>>>>,>>>>,>,>,>,>,>,>,><>,,,,,,,,,,,,,,,,,,,,,,,,,,,>,,,,,,<<,<<<<<1,1,,11>111>1>1<<<<<<EEEEEEEEE",
"EEEEEEEE1,>>>>>>>>>>>><>>><>>,>>,>,>,>>>>,>>>>>>>>,,,,1,,,,,,,,,<>><,,,,,,,,,,,,<><<<><>,,<<<<<<<<<<,,<<,,1,1,<<<<<<<<<<EEEEEEEE",
"EEEEEEEE,,>>>>>>>>>>>>>>>>>>>>>>>>>>>>,>>>,>,>>,,,,,,,-,,,,,,,,,><>>,,<,,,,,,,,<,<><<1>>1<<<<<,<<<,<<<<,,1,1,1<<<<<<<<<<EEEEEEEE",
"EEEEEEE>-,,>>>>>>>>>>><>>>><>,>>>,,>>,,>>>>>>,,,,,,,,,,,,,,,,,,,<>><,<,,,,,,,,<,,,<<<<11,<<,<,<<<<<<,1<,,,,111,<1<<1<<<11EEEEEEE",
"EEEEEEE,1,,,>>>>>>>>>>>><>>>>>,,,>,>>,>,,>,,,,,,,,,,,,,,,,,,,,,,><,,,,<,,,<,<,,,,,<><<>1<<<<<<,<<<<<<,<<1,11,<1<<<1<1<111EEEEEEE",
"EEEEEE1,>,,>>>>>>>,,>>>>>>,>,>,>>,>,>>>>,>,,,>,,,,,,<,,,,,,<,,,,<><>,,<,,<,<,,,,<<<<<<<1<<<<<,<<<<<<<<<<,1,1<11<1<11<11<11EEEEEE",
"EEEEEE-,>>>>>>>>>>,,>,>,>>>>,>>>>>>>,,,>,,,,,,,,,,,,,,,,,,,,,,,,><<<,,,,,,,,,<<,<<<<<1<><<><<<<<<<<<<<<<1,1,<<11<1<<1<<111EEEEEE",
"EEEEE<,,>,>,>>>>>>>,,>>><>>>>,>,,>,,,,,,>,,,,,,,,,,,,,,,1,,,,,,,<><><,,,,,<<<<<<<<,<<>>11>1<<<<<<<<1<<<<,1,1111<<1<11<11111EEEEE",
"EEEEE1-2,>>,>,>>,>>>>>>,>>><,>,>>,,,,,,,,,,,,,>,,,,,,,,,,,,,,,,,<<<<,,,,<<<<<,<<<<<<<<1>1<1>,<<<<<1<<<1<1,1<1<1<1<1<<11<1<1EEEEE",
"EEEE>>,,>>>,>>>,,>,>>,,>>>>>>,,,><>,,,,,,,,,,,,,,,,,,,,,,,,,,11,,,,,,<<<<,<<<<,<<<<<<<<<<<<<<<<<<1<111<11<111<11<11111111<<1EEEE",
"EEEE,,>,>,>,>,>>>,>,,>>,>>>>,,,<<><,,,,,,,,,,,,,,,,,,,,,,,,,,2-<,,<<<<<<<<<,<<<<<,<<,<,<<<<<<<<<1<1<<11<<11,1<1<11111111<111EEEE",
"EEEE>>,,>>>>,>,>,>>,>,>><>,>,,,>><,,,,<,,,,,,,,,,,,,,,,,,,,,,,-2<<<,<<<<<<<<<<,<<<<,<<<<<<<<<<<<<<,1<11<1<11<11<<111111111<1EEEE",
"EEE>>,,1>,,>>>,>>>,>,>,>><>,,,,,<>,,,<<,,,,,,,,,,,,,,,,,,,,,,1<<<<<<<<<<,<<<<<<<,<<<<<<<<<1<<<<2<<,11<11<1<<11<1<<11111111111EEE",
"EEE1>,>->>>,>>,>>,>,,,<><<><,,,,><><,,,,,,,,,,,,,,,,,,,,1,,1<<<<<<<><<<<<<<,<<<<1,1<<<<<<<<1<1<111<1<11<1<11,1<11111111111111EEE",
"EEE,>,>,,,>>,>,>>,,>,,>,<><>,,,,<><>,,,,,,,,,,,,,11,,,,,,11,<<<<<<<<<<<<<<<<<<<<<1<<<<<<<1<<<<1111<11<1<1<<1111<111<111111111EEE",
"EE,,>>,>>>,>>,,,,>,,,,,,<>><,,,,><><,,,,,,,,,<,,,,,,,1<<<<,1<<<<><<<><<<<<<<<<<<<<<1<11<>1<1111<1<1<<<11<111<<1111111111111112EE",
"EE,,,>>>>,>,,,,,>,,,,,,,,<><,,,,<><>,,,,,,,<,,,,,,,,,1<<<,1,<<<<<<<<<<<<<<<<<<<<1<1<1<<11<1<11<1<1<1111<1111111111111111111111EE",
"EE>,>>,>,,,,>,,,,><><><>><1>11><<<<<<<<<>11,1,,111,<<>>>22--22,,<111<<<11,,1,111<<<<<<>111<<11<1111111211111111111111111111112EE",
"EE,>>,>,,,,,,,,,,,><><<>7mNNNNNNMMMMNNNNNNNNNNNNNNNNmxy5-<222-,2xBBBBNBNCb5,111,<<<1111111<1<11<11gVBBBBVNVNe111<1111112211111EE",
"E,,,><,>,,,,,,,,,,,>><>>iTRRTRRRYRRRRRRRRRRRRRRRRRRRRRTSu<-212-9LRTRRRRRTRc1111,111<1111<<1<11112lTRRRRRRRRYe>11111111111111212E",
"E,,><><<,,,,,,>,,,><<>>>kRTTTRTTYTRRRTRRTRTRRTRTRRTRRRRRUh22,,1yYRRTRRRRRRUu,,11<1111<1<11<111,2xTRRRRRRRRRJ7111111111111111112E",
"E-<<><<>,,,,,,,,><<><<><nRTTTRRTRTRRRTRRTRTRRTRRTRTRTRRTRIu-<<>gRRRRTRRRTRRF7>,,11<11111<111112cTRRRRRRRRRRS2111111111111112111E",
"E<>><>><,,,,,,,,<><<><>2ARRTRRTRRRTTTRRTRTRTRRTTRTRRRTTRRRD5<<<vRRRRRRTRRRRRb2111<11<1<1111112vRRRRRRRRRRRRn111111<111122111112E",
"E2><><<>,,,,,,,,<>><<>>6JRRTTRTRTRRRTRTRRRRRTRTRTRTTTRRRRRYt><1ZRRRTTRRRRRRRUd,11111111<11113nTRRRRRRRRRRRRDccccvcce11111111111E",
"<<<><<><,,,,,,,,><<><<>eURTRRTRTRTTTRTRTTTTTTTTTTRRRRRTRTRRg><5GRRRRRRTRTRRTRJ9,1<1<111<11<4nTRRRRRRRRRRRRRRRRRRRRRp<11111121121",
"<><>,,,,<,,<,,,,<<,,,,,dTRTRRRTRIhdippppppppddpdpkHRRRTRTRRg><0IRRRTRRRRRRRTRRM2111<11111<5MRRRRRRRRRRRRRRRRRRRRRRI0<1111211212<",
"><><,,,,,,,,,,,,<>,,,,,xTTTRTRRRG5,->>>>>>>>-,-1>>yURRRRRRRp>>iTRRRRRTRRRRRRRRTf<111111<<5NRRRRRRRRRRRRRRRRRRRRRRRH5121<2111111<",
"><<<,,,<,,,,,,,,,,,,,,,BRRRTRTTRZ21,<<<,<<<<,,,,<>0IRTTRRRIw<>kRTRRRRRTRTRRRRRRKq<11<1<<6NRRRRRRRRRRRRRRRRRRRRRRRRV<,:;;;;#$$+++",
"<><>,,,,,,<,,,,>>>,>,>3FRTRRRTRRv>>>>>>><>>>,,,>><xRRRRRRRA2<<mRRRRRRTRRRRRRRRRRC21111<7CRRRRRRRRRRRRRRRRRRRRRRRRRlOOXX.... ....",
"><,,,,,,,<,,,<7ewwwwewiPRTTRTRRRvererewewewweewercURRTRRRUd><2ARRRRRRRRRRRRRRRRRRk<1117ZRRRRRRRRRRRRRRRRRRHDSDDDDD9 ............",
"<>,,,,,,,,,,,1BUIUIIUUURTRRTTRTRTUUUUUUUUUUUUUUUURRRRRTRRb2<<6JRRTRRRRRHYRRRRRRRRPe1<9ZRRRRRRRRTDRRRRRRRRY6O@@@@@@o.............",
">><,,,,,,,<<<5GRRRRRRRTRRRTRRTRTTRRRRRRRRRRRRRRRRRRRRRRRm5><<wURRRRRRRTdMRRRRRRRRRA48ARRRRRRRRTfpRRRRRRRRK= . . . ..............",
"<<,,,,,,<<<<,0IRRRYRTRRTRTRTTRRRRRTRTRRTRRRRRRRTRTRTTRUk2>><>dRRRRRRRRU09HRRRRRRRRRnSRRRRRRRRTdOkRRRRRRRRA+.....................",
",,,,<><<<<<<-iTRRTRRRRTRTRTRRRTRTRRRRYRRRRRRRRRRRRRTTRYj11111xRRRRRRRRJ6>sYRRRRRRRRRRRRRRRRRYsooMRRRRRRRRv......................",
",,,<<<<<<<<<<jRTRRTTTTRRRRRTTRRRRRRRRRRRTRRRTRRRTRRRRRRYp,<11BRRRRRRRRA211nRRRRRRRRRRRRRRRRYpo.$GRRRRRRRRs .....................",
",<<<<<<<<<<<2bRTTTYTTTRTRRRRRRRTTTTTYTYRTTTTTTYTRRRRRRRRD51<5FRRRRRRRRb>;$;DRRRRRRRRRRRRRRYuX .:IRRRRRRRRq.OOOOOO...............",
"<<><<<<<<<,,,0uuyyyuucRRRTRRTRYhyuuuuuuuuuuuuiupARRRRRRRUe<<9PRRRRRRRRi... 6URRRRRRRRRRRRIto.. 7RRRRRRRRRSVVVBBBn*..............",
"<<<<<><<<<<<<>>>--11-kRRRTRRRRJ6>,,><,,,,,,,>>>>qIRRRRRRTu<<yYRRRRRRRT4 ...ohRRRRRRRRRRRUe.....pRRRRRRRRRRRRRRRRH&..............",
"<<,<<<<<<<<<<<<<21,1<mRRRRRRRRS3<<<<<<<<,1<1111<8PRRRRRRYr<<gRRRRRRRRP; ... %ZRRRRRRRRRIe......cRRRRRRRRRRRRRRRRVO..............",
",<<<<<<<<><<<<<<,11,2SRRTRTRRRm,>>,,>>,,,,,,,,>1kRRRRRRRL7-%lRRRRRRRRD@ .... 4IRRRRRRRL9 .....+CRRRRRRRRRRRRRRRRz...............",
"1<<<<<<<<<<<<<<,1,117JRRRRRRRRMuuuuuuuuuuuuuuupbYRRRRRRRC$.oMRRRRRRRRmo.......dRRRRRRL9.......&HRRRRRRRRRRRRRRRRu...............",
",<1,<<1,<<<<<<<2<<,,rUTRRRTRRRTTTRYTTRTRRTTRTRRRRRRRRRRRp .#FRRRRRRRRf .......#BRRRRK6....... 1URRRRRRRRRRRRRRRR6...............",
"E<,11,,1<<<<2<<<<<1,dTRRRRRRRTTRRRRRRRRRRRRRRRRRRRRRRRRF*. ;IRRRRRRRRe ....... 1LRRJ5 ....... qRRRRRRRRYbzxxzxxk&..............E",
"E<<,1,1,<<1<<<<<111,xRRTRRRRRRRRRRRRRRRRRRRRRRRRRRRRRRU9...6TRRRRRRRU1..........iRH4 ........ fRRRRRRRRF#. ....................E",
"E<<<,1,1<<11<<<<1111NRRRTRRRRRRRRRRRRRRRRRRRRRRRRRRRRIe... uRRRRRRRRH=..........@h1 .........OnRRRRRRRRMo......................E",
"E<,212,,<1<<<11<2<<3FRRRRRRRRRRRRRRRRRRRRRRRRRRRRRRRF7.....zRRRRRRRRAO...........o ......... @DRRRRRRRRh ......................E",
"E<<<<<<<11111<11,<<9IRRRRRRRRRRRRRRRRRRRRRRRRRRRRRJh= ....OCRRRRRRRRc....................... ;LRRRRRRRRe ......................E",
"EE<<<<<<1<<11<<<<<20BZZZZZZZZZZZZZZZZCMMMNNNBNNMze*. .....@lNNMMMMBNq .......................;nNBMNNBMn> .....................EE",
"EE<11<111<11<1<<<<-22<2221212221221>&OXXoO.o.o.O  .........oooOOoooo..........................XOoo.ooo........................EE",
"EE1111<<1<<1<<1111111111111111111;#o............................ .............................................................EE",
"EE111,11111<1111111111111111111:#o............................................................................................EE",
"EEE111,,<<1111111111111111121:#o.............................................................................................EEE",
"EEE111121111111111111111111>$o....................................................X..........................................EEE",
"EEE1111<<<<111111111111<1>%o.................................................................................................EEE",
"EEEE<1112<2111,11111111>&o..................................................................................................EEEE",
"EEEE1<1<,<11112,111111;O..........................................................................X.........................EEEE",
"EEEE11112<1111111111:#X.....................................................................................................EEEE",
"EEEEE111<<12111111>%X.....................................................................................X................EEEEE",
"EEEEE11111111111>;OX.......................................................................................................EEEEE",
"EEEEEE121111111>%X..................................X.....................................................................EEEEEE",
"EEEEEE1111111>;+..........................................................................................................EEEEEE",
"EEEEEEE11111>$...........................................................................................................EEEEEEE",
"EEEEEEE1111;O............................................................................................................EEEEEEE",
"EEEEEEEE1<&X............................................................................................................EEEEEEEE",
"EEEEEEEE;#..............................................................................X...............................EEEEEEEE",
"EEEEEEEEE....................X.........................................................................................EEEEEEEEE",
"EEEEEEEEE.............................................................X................................................EEEEEEEEE",
"EEEEEEEEEE..............................X................X............................................................EEEEEEEEEE",
"EEEEEEEEEEE................................................................................................X.........EEEEEEEEEEE",
"EEEEEEEEEEE..........................................................................................................EEEEEEEEEEE",
"EEEEEEEEEEEE........................................................................................................EEEEEEEEEEEE",
"EEEEEEEEEEEEE...........................................................................X..........................EEEEEEEEEEEEE",
"EEEEEEEEEEEEEE....................................................................................................EEEEEEEEEEEEEE",
"EEEEEEEEEEEEEEX....................................................................................X..............EEEEEEEEEEEEEE",
"EEEEEEEEEEEEEEE..................................................................................................EEEEEEEEEEEEEEE",
"EEEEEEEEEEEEEEEE................................................................................................EEEEEEEEEEEEEEEE",
"EEEEEEEEEEEEEEEEE.X............................................................................................EEEEEEEEEEEEEEEEE",
"EEEEEEEEEEEEEEEEEE............................................................................................EEEEEEEEEEEEEEEEEE",
"EEEEEEEEEEEEEEEEEEE.........................................................X................................EEEEEEEEEEEEEEEEEEE",
"EEEEEEEEEEEEEEEEEEEE..................X............X........................................................EEEEEEEEEEEEEEEEEEEE",
"EEEEEEEEEEEEEEEEEEEEE......................................................................................EEEEEEEEEEEEEEEEEEEEE",
"EEEEEEEEEEEEEEEEEEEEEE....................................................................................EEEEEEEEEEEEEEEEEEEEEE",
"EEEEEEEEEEEEEEEEEEEEEEE..................................................................................EEEEEEEEEEEEEEEEEEEEEEE",
"EEEEEEEEEEEEEEEEEEEEEEEEE.....................................................................X........EEEEEEEEEEEEEEEEEEEEEEEEE",
"EEEEEEEEEEEEEEEEEEEEEEEEEE..........X.................................................................EEEEEEEEEEEEEEEEEEEEEEEEEE",
"EEEEEEEEEEEEEEEEEEEEEEEEEEE..........................................................................EEEEEEEEEEEEEEEEEEEEEEEEEEE",
"EEEEEEEEEEEEEEEEEEEEEEEEEEEEE......................................................................EEEEEEEEEEEEEEEEEEEEEEEEEEEEE",
"EEEEEEEEEEEEEEEEEEEEEEEEEEEEEE..............................X.......X.............................EEEEEEEEEEEEEEEEEEEEEEEEEEEEEE",
"EEEEEEEEEEEEEEEEEEEEEEEEEEEEEEEE................................................................EEEEEEEEEEEEEEEEEEEEEEEEEEEEEEEE",
"EEEEEEEEEEEEEEEEEEEEEEEEEEEEEEEEEE...................X........................................EEEEEEEEEEEEEEEEEEEEEEEEEEEEEEEEEE",
"EEEEEEEEEEEEEEEEEEEEEEEEEEEEEEEEEEEE........................................................EEEEEEEEEEEEEEEEEEEEEEEEEEEEEEEEEEEE",
"EEEEEEEEEEEEEEEEEEEEEEEEEEEEEEEEEEEEEE....................................................EEEEEEEEEEEEEEEEEEEEEEEEEEEEEEEEEEEEEE",
"EEEEEEEEEEEEEEEEEEEEEEEEEEEEEEEEEEEEEEEE........................................X.......EEEEEEEEEEEEEEEEEEEEEEEEEEEEEEEEEEEEEEEE",
"EEEEEEEEEEEEEEEEEEEEEEEEEEEEEEEEEEEEEEEEEEE..............................X...........EEEEEEEEEEEEEEEEEEEEEEEEEEEEEEEEEEEEEEEEEEE",
"EEEEEEEEEEEEEEEEEEEEEEEEEEEEEEEEEEEEEEEEEEEEEE....................................EEEEEEEEEEEEEEEEEEEEEEEEEEEEEEEEEEEEEEEEEEEEEE",
"EEEEEEEEEEEEEEEEEEEEEEEEEEEEEEEEEEEEEEEEEEEEEEEEEE............................EEEEEEEEEEEEEEEEEEEEEEEEEEEEEEEEEEEEEEEEEEEEEEEEEE",
"EEEEEEEEEEEEEEEEEEEEEEEEEEEEEEEEEEEEEEEEEEEEEEEEEEEEEEE..................EEEEEEEEEEEEEEEEEEEEEEEEEEEEEEEEEEEEEEEEEEEEEEEEEEEEEEE"
};
