/* XPM */
static char *bitmark128[] = {
/* columns rows colors chars-per-pixel */
"128 128 88 1 ",
"  c #2A005F",
". c #2F0063",
"X c #330066",
"o c #340967",
"O c #350668",
"+ c #360B68",
"@ c #390E6A",
"# c #371069",
"$ c #3C136D",
"% c #3F196F",
"& c #40166F",
"* c #401670",
"= c #431C72",
"- c #462175",
"; c #492376",
": c #492A77",
"> c #4B2678",
", c #4E2A7A",
"< c #512E7D",
"1 c #54327E",
"2 c #55387F",
"3 c #563480",
"4 c #583782",
"5 c #563B80",
"6 c #5C3C84",
"7 c #603E87",
"8 c #5F4187",
"9 c #604187",
"0 c #63448A",
"q c #66488C",
"w c #694B8E",
"e c #6B4E90",
"r c #6E5192",
"t c #715594",
"y c #745997",
"u c #765B99",
"i c #795E9A",
"p c #7C639D",
"a c #7D689E",
"s c #7F66A0",
"d c #80679F",
"f c #8167A1",
"g c #846CA3",
"h c #896EA6",
"j c #8771A5",
"k c #8972A7",
"l c #8D75A9",
"z c #8F78AB",
"x c #927CAD",
"c c #9581AF",
"v c #9681B0",
"b c #9985B3",
"n c #9D8BB6",
"m c #A18EB8",
"M c #A594BC",
"N c #A999BF",
"B c #AC9CC1",
"V c #AFA1C3",
"C c #B3A4C6",
"Z c #B5A7C8",
"A c #B7A9C9",
"S c #BAADCB",
"D c #BEB2CE",
"F c #BFB3D0",
"G c #C0B4CF",
"H c #C1B5D1",
"J c #C5BAD4",
"K c #C9BED6",
"L c #CAC1D7",
"P c #CCC3D9",
"I c #D0C7DC",
"U c #D3CADE",
"Y c #D6CEE0",
"T c #DBD4E4",
"R c #DFD8E7",
"E c #DFD9E8",
"W c #E0DAE7",
"Q c #E2DDEA",
"! c #E6E1EC",
"~ c #E9E4EE",
"^ c #EBE7F0",
"/ c #EEEAF2",
"( c #F1EEF4",
") c #F4F1F6",
"_ c #F6F4F8",
"` c #F8F6FA",
"' c #FFFFFF",
"] c None",
/* pixels */
"]]]]]]]]]]]]]]]]]]]]]]]]]]]]]]]]]]]]]]]]]]]]]]]]]]]]]]]]]]]]]]]XX]]]]]]]]]]]]]]]]]]]]]]]]]]]]]]]]]]]]]]]]]]]]]]]]]]]]]]]]]]]]]]]",
"]]]]]]]]]]]]]]]]]]]]]]]]]]]]]]]]]]]]]]]]]]]]]]]]]]]]]XXXXXXXXXXXXXXXXXXXXXX]]]]]]]]]]]]]]]]]]]]]]]]]]]]]]]]]]]]]]]]]]]]]]]]]]]]]",
"]]]]]]]]]]]]]]]]]]]]]]]]]]]]]]]]]]]]]]]]]]]]]]]]XXXXXXXXXOXXXXXXXXXXXXXXXOXXXXXX]]]]]]]]]]]]]]]]]]]]]]]]]]]]]]]]]]]]]]]]]]]]]]]]",
"]]]]]]]]]]]]]]]]]]]]]]]]]]]]]]]]]]]]]]]]]]]]]XXXXXXOXXXXXXXXXXXXXOXXXXXXXXXXXXXXXXX]]]]]]]]]]]]]]]]]]]]]]]]]]]]]]]]]]]]]]]]]]]]]",
"]]]]]]]]]]]]]]]]]]]]]]]]]]]]]]]]]]]]]]]]]]OXXXXXXXXXXXXXXXXXXXXXXXXXXXXXXXXXXXXXXXXOXX]]]]]]]]]]]]]]]]]]]]]]]]]]]]]]]]]]]]]]]]]]",
"]]]]]]]]]]]]]]]]]]]]]]]]]]]]]]]]]]]]]]]XXXXXXXXXXXXXXXXXXXXXXXXXXXXXXXXXXXXXXXXXXXXXXXXXX]]]]]]]]]]]]]]]]]]]]]]]]]]]]]]]]]]]]]]]",
"]]]]]]]]]]]]]]]]]]]]]]]]]]]]]]]]]]]]]XXXXXXXXXXXXXXXXOXXXXXXXOXXXXXXXXXXXXXXXXXXXXXXXXXXXXX]]]]]]]]]]]]]]]]]]]]]]]]]]]]]]]]]]]]]",
"]]]]]]]]]]]]]]]]]]]]]]]]]]]]]]]]]]]XXXXXXXXXXXXXXXXXXXXXXXXXXXXXXXXXXOXXXXXXXOXXXXXXXXXXXXXXX]]]]]]]]]]]]]]]]]]]]]]]]]]]]]]]]]]]",
"]]]]]]]]]]]]]]]]]]]]]]]]]]]]]]]]]XXXXXXXOXXXXXXXXXXXXXXXXXXXXXXXXXXXXXXXXXXXXXXXXXXXXXXXXXXXXXX]]]]]]]]]]]]]]]]]]]]]]]]]]]]]]]]]",
"]]]]]]]]]]]]]]]]]]]]]]]]]]]]]]]XXXXXXXXXXXXXXXXXXXXXXXOXXXXXXXXXXXXXXXOXXXXXXXXXXXXXXXXXXXXXXXXX]]]]]]]]]]]]]]]]]]]]]]]]]]]]]]]]",
"]]]]]]]]]]]]]]]]]]]]]]]]]]]]]]XXXXXXXXXXXXXXXXXXXXOXXXXXXXXXXXOXXXXXXXXXXOXXXXXXXXXXXXXXXXXXXXXXXX]]]]]]]]]]]]]]]]]]]]]]]]]]]]]]",
"]]]]]]]]]]]]]]]]]]]]]]]]]]]]XXXXXXXXXXXOXXXXXXXXXXXXXXXXXXXXXXXXXXXXXXXXXXXXXXXXXXXXXXXXXXXXXXXXXXXX]]]]]]]]]]]]]]]]]]]]]]]]]]]]",
"]]]]]]]]]]]]]]]]]]]]]]]]]]]XXXXXXXXOXXXXXXXXXXXOXXXXXXXXXXXXXXXXXXXXXXXXXXXXXXXXXXXXXXXXXXXXXXXXXXXXO]]]]]]]]]]]]]]]]]]]]]]]]]]]",
"]]]]]]]]]]]]]]]]]]]]]]]]]XXXXXXXXXXXXXXOXXXXXXXXXXXXXOXXXXXXXXXXOXXXXXXXXXXXXOXXXXXXXXXXXXXXXXXXXXXXXX]]]]]]]]]]]]]]]]]]]]]]]]]]",
"]]]]]]]]]]]]]]]]]]]]]]]]XXXXXXXXXXXXXXXXXXXXXXXXXXXXXXXXXOXXXXXXXXXXXXXXOXXXXXXXXXXXXXXXXXXXXXXXXXXXXXXX]]]]]]]]]]]]]]]]]]]]]]]]",
"]]]]]]]]]]]]]]]]]]]]]]]XXXXXXXXXXXXXXXXXXXXXXXXXXXXXXXXXXXXXXXXXXXXXXXXXXXXXXXXXXXXXXXXXXXXXXXXXXXXXXXXXX]]]]]]]]]]]]]]]]]]]]]]]",
"]]]]]]]]]]]]]]]]]]]]]]XXXXXXXXXXXXXXXXXOXXXXXXXXXXXXXXXXXXXXXXXXXXXXXXXXXXXXXXXXXXXXXXXXXXXXXXXXXXXXXXXXXX]]]]]]]]]]]]]]]]]]]]]]",
"]]]]]]]]]]]]]]]]]]]]]XXXXXXXXXXXXXXXXXXXXXXXXXXXXXXXXXXXXXXXXXXXXXXOXXXXXXXXXXXXXXXXXXXXXXXXXXXXXXOXXXXXXXX]]]]]]]]]]]]]]]]]]]]]",
"]]]]]]]]]]]]]]]]]]]]XXXXXXXXXXXXXXXXXXXXXXXXXXXXXXXXXXXXXXXXXXXXXXXXXXXXXXXXXXXXXXXXXXXXXXXXXXXXXXXXXXXXXXXX]]]]]]]]]]]]]]]]]]]]",
"]]]]]]]]]]]]]]]]]]]XXXXXXXXXXXXXXXXXXXXXXXXXXOXXXXXXXXXXXXXXXXXXXXXXXXXXXXXXXXXXXXXXXXXXXXXXXXXXXXXXXXXXXXXXX]]]]]]]]]]]]]]]]]]]",
"]]]]]]]]]]]]]]]]]]XXXXXXXXXXXXXXXXXXXXXXXXXXXXXXXXXXXXXXXXXXXXXXXXXXXXXXXXXXXXXXXXXXXXXXX.XXXXXXXXXXXXOXXXXXXX]]]]]]]]]]]]]]]]]]",
"]]]]]]]]]]]]]]]]]XXXXXXXXXXXXXXXXXXXXXXXXXXXXXXXXXXXXXXXXXXXXXXXXXXXXXXOXXXXXXXXXXXXXX.&6r@XXXXXXXXXXXXXXOXXXXX]]]]]]]]]]]]]]]]]",
"]]]]]]]]]]]]]]]]XXXXXXXXXXXXXXXXXXXXXXXXXXXXXXXXXXXXXXXXXXXXXXXXXXXXXXXXXXXXXXXXX..#<iNP/^6.XXXXXXXXXXXXXXXXXXXX]]]]]]]]]]]]]]]]",
"]]]]]]]]]]]]]]]XXXXXXXXXXXXXXXXXXXXXXXXXXXXOXXXXXXXXXXXXXXXXXXXXXXXXXXXXXXXXXXXXOqbJ~`''''h.XXXXXXXXXXXXXXXXXXXXX]]]]]]]]]]]]]]]",
"]]]]]]]]]]]]]]XXXXXXXXXXXXXXXXXXXXXXXXXXXXXXXXXXXXXXXXXXXXXXXXXXXXXXXXXXXXXXXXXX&I''''''''AoXXXXXOXXXXXXXXXXXXXXXX]]]]]]]]]]]]]]",
"]]]]]]]]]]]]]XXXXXOXXXXXXXXXXXXXXXXXXXXXXXXXXXXXXXXXXXXXXXXXXXXXOXXXXXXXXXXXXXXX=T''''''''T-XXXXXXXXXXXXXXXXXXXXXX]]]]]]]]]]]]]]",
"]]]]]]]]]]]]]XXXXXXXXXXXXXXXXXXXXXXXXXXXXXXXXXXXXXXXXXXXXXXXXXXXXXXXOXXXXXXXXXX.-T'''''''')w.XXXXXXXXXXXXXXXXXXOXXX]]]]]]]]]]]]]",
"]]]]]]]]]]]]XXXXXXXXXXXXXXXXXXXXXXXXXXXXXXXXXXXXXXXXXXXXXXXXXXXXXXXXXXXXXXXXXXXX;W'''''''''x.XXXXXXXXOXXXXXXXXXXXXXX]]]]]]]]]]]]",
"]]]]]]]]]]]XOXXXXXXXXXXXXXXXXXXXXXXXXXXXXXXXXXXXXXXXXXXXXX...XXXXXXXXXXXXOXXXXXX;W'''''''''H@XXXXXXXXXXXXXXXXXXXXXXO]]]]]]]]]]]]",
"]]]]]]]]]]]XXXXXXXXXXXXXXXXXXOXXXXXXXXXXXXXXXXXXXXXXXXXXX$1gp+.XXXXOXXXXXXXXXXXX>Q'''''''''Q,.XXXXOXXXXXXOXXXXXXXXXXX]]]]]]]]]]]",
"]]]]]]]]]]XXXXXXXXXXXXXXXXXXXXXXXXXXXXXXXXXXXXXXXXXXX@,ymL/`(r.XXXXXXXXXXXXXXXXX<!'''''''''`t.XXXXXXXXXXXXXXXXXXXXXXXX]]]]]]]]]]",
"]]]]]]]]]XXXXXXXXXXXOXXXXXXXXXXXXXXXXXXXXXXXXXXXXXX@gHQ`'''''L=XXXXXXXXXXXXXXXXX<!''''''''''mXXXXXXXXXXXXXXXXXXXXXXXXX]]]]]]]]]]",
"]]]]]]]]]XXXXXXXXXXXXXXXXXXXXXXXXXXXXXXXXXXXXXXXXXX%U'''''''''zoXXXXXXXXXXXXXXX.1~''''''''''L$XXXXXXXXXXXXXXXXXXXXXXXXX]]]]]]]]]",
"]]]]]]]]XXXXXXXXXXXXXXXXXXXXXXXXXXXXXXXXXXXXXXXXXXX.N'''''''''Q4XXXXXXXXXXXXXXX.1^''''''''''/2XXXXXXOXXXXXXXXXXXXXXXXXXX]]]]]]]]",
"]]]]]]]]XXXXXXXXXXXXXXXXXXXXXXXXXXXXX..X...XXXXXXXX.p`'''''''''C#XXXXXXXXXXXXXXX3/''''''''''`a.XXXXXXXXXXXXXXXXXXXXXXXXX]]]]]]]]",
"]]]]]]]OXXXXXXOXXXXXXXXXXXXXXXXXX X$,qpzzf0*.XXXXXX.1~'''''''''_yXXXXXXXXXXXXXX.4/''''`''''''B.XXXXXXXXXXXXXXXXXXXXXXXXXX]]]]]]]",
"]]]]]]]XXXXOXXXXXXXXXXXXXXXX...$1pMK!)`''`(Ub1.XXXXX$J''''''''''U-XXXXXXXXXXXXX.6/''''R_'''''U=XXXXXXXXXXXXXXXXXXXXXXXXXX]]]]]]]",
"]]]]]]XXXXXXXXXXXXXXXXXXXXXo>tnK^`'''''''''''Ek#XXXX.n'''''''''''noXXXXXXXXXXXX.8)''''AT'''''(0.XXXXXXXXXXXXXXXXXXXXXXXXXX]]]]]]",
"]]]]]]XXXXXXXXXXXXXXX..o=qxFQ_''''''''''''''''`N%XXX.t_''''''''''^0 XXXXXXXXXXXX0)''''mV''''''h.XXXXXXXXXXXXXXXXXXXXXXXXXX]]]]]]",
"]]]]]XXXXXXXXXXXXXXX@6gCT)''''''''''''''''''''''N#XXX>Q'''''''''''D$XXXXXXXXXXX.0)''''vg''''''S+XXXXXOXXXXXXXXXXXXXXXXXXXX]]]]]]",
"]]]]]XXXXXXXOXXXXXX.p/''''''''''''''''''''''''''`loXX+D'''''''''''`g.XXXXXXXXXX.q)''''z6('''''R;XXXXX.XXXXXXXXXXXXXXXXXXXXX]]]]]",
"]]]]]XXXXXXXXXXXXXX.r_'''''''''''''''''''''''''''!4XX.z''''''''''''R<.XXXXXXXXX.w)''''l%U'''''_eXXX+>q&XXXXXXXXXXXXXXXXXXXX]]]]]",
"]]]]XXXXXXXXXXXXXXXX>R''''''''''''''''''''''''''''VoX.q)'''''_''''''NoXXXXXXXXX.e_''''h.B''''''b*0lSW(i.XXXXXXXXXXXXXXXXXXXX]]]]",
"]]]]XXXXXXXXXXXXXXXX+S'''''''''''''''''``'''''''''/0.X=T'''''RY'''''(r.XXXXXXXX.r_''''j.a`'''''!Y(''''NoXXXXXXXXXXXOXXXXXXXX]]]]",
"]]]]XXXXXXXXXXXXXXXX.l''''''''''''_QHngtpmR''''''''MoXoC'''''Qb)'''''L=XXXXXXXX.y`''''f 3^''''''''''''U*XXXXXXXXXXXXXXXXXXXX]]]]",
"]]]XXXXXXXXXXXXXXXXXX0('''''''`!Jbr>#.....,Z'''''''R;..g'''''`aV'''''`x.XXXXXXX.y`'''`p.#L''''''''''''(6.XXXXXXXXXXXXXXXXXXXX]]]",
"]]]XXXXXXXXXXXXXXXXX.=Y''''''Fu<#..XXXXXXX.=J''''''_y.X6/'''''M5Q'''''!4.XXXXXX.i`'''`u.Xn'''''''''''''k.XXXXXXXXXXXXXXXXXXXX]]]",
"]]]OOXXXXXXXXXXOXXXXXoB''''''c .XXXXXXXXXXX.0/''''''MoX$I'''''P%z''''''Z@XXXXXX.p`'''`y..t_''''''''''')vXXXXXXXXOXXXXXXXXXXXX]]]",
"]]XXXXXXXXXXXXXXXXXXXXf''''''F+XXXXXXXXXXXXXoZ''''''P$XoN'''''/4%P'''''_i.XXXXX.p`'''`t..>Q'''''''_WSl0&XXXXXXXXXXXXXXXXXXOXX]]]",
"]]XXXXXXXOXXXXXXOXXXXX4^'''''Q,XXXXXXXXXXXXX.y`'''''^1X.i`'''''g t)'''''U;.XXXX.f`'''_r.X#F''''''He:+..XXXXXXXXXXXXXXXXXXXXXXX]]",
"]]XXXXXXXXXXXXXXXXXXXX&L'''''`t.XXXXXXXXXXXXX>R''''')r..1!'''''CooB''''''boXXXX.g''''_w.XXx''''''B..XXXXXXXXXXXXXXXXXXXXXXXXXX]]",
"]]XXXXXXXXXXXXXXXXXXXXXm''''''mXXXXXXXXXXXXXXoS''''''a.X#J'''''Y=.1R'''''^0.XXX.g'''')q.X.q)'''''Y=XXX..oXXXXXXXXXXXXOXXXXXXXX]]",
"]]XXXXXXXXXXXXXXXXXXXX.y`'''''K$XXXXXXXXXXXXX.c''''''l.X.b''''')0X.k`'''''D$XXX.k''''_0.XX-Y''''')8.o-wvN;XXXXXXXXXXXXXXXXXXXX]]",
"]XXXOXXXXXXXXXXXXXXXXXX<!'''''^3XXXXXXXXXXXXXXy`'''''xXX.e_'''''x..%J'''''`g.XX.l''''(7.XXoC''''''MgCT)'`y.XXXXXXXXXXXXXXOXXXX]]",
"]XXXXXXXXXXXXXXXXXXXXXX+H'''''`a.XXXXXXXXXXXX.0)'''''x.XX>W'''''D@X.w/'''''T<.X.z''''/6.XX.g'''''''`'''''m.XXXXXXXXXXXXXXXXXXXX]",
"]XXXXXXXXXXXXOXXXXXXXXX v''''''BoXXXXXXXXXXXX.4/'''''g.XX+S'''''W>XX+M''''''NoX.x''''/3.XX.6/''''''''''''L$XXXXXXXOXXXXXXXXXXXX]",
"]OXXXXXXXXXXXXXXXXXXXXXXw)'''''Y&XXXXXXXXXXXXX2/''''`t.XX.z'''''_t.X.,R'''''(r..v''''^3.XXX*I''''''''''''^1XXXXXOXXXXXXXXXXXXOX]",
"]XXXXXXOXXXXXXXXXXXXXXXX;R'''''(9.XXXXXXXXXXX e_''''/4.XX.8/'''''n.XX.g`'''''L=.b''''!<.XXX.N'''''''''''''dXXXXXXXXXXXXXXXXXXXX]",
"]XXXXXXXXXXXXXXXXXXXXXXXoA''''''k.XXXXXXXXXXXXn'''''I$...#q!'''''K$XXX$F''''''z.n''''!,.XXX.i`''''''''')TZ7XXXXXXXXXXXXXXXXXXXX]",
"]XXXXXXXXXXXXXOXXXXXXXXXXh''''''AoXXXXXXXXXX.<R'''''n+,tnL^''''''~1.XX.0/'''''!2n''''W>XXXXX1~''''''!Hcw;+XXXXXXXXXXXXXOXXXXXXX]",
"]XXXXXXXXXXXXXXXXXXXXXXX.8('''''R;XXXXXXXXX.$C'''''`SFQ_'''''''''`p.XXXon''''''VB''''R-.XXXX$H'''''`ko..XXXXXXXOXXXXXXXXXXXOXXX]",
"]XXXOXXXXXXXXXXXXXXXXXXXX*U''''')w.XXXXXX.X:N`''''''''''''''''''''MoXXX.>Y''''')Q''''T-XXXXXXb''''''MoXXXXXXXXXXXXXXXXXXXXXXXXX]",
"]XXXXXXXXXXXXXXXXXXXXXXXXoN''''''b.XXX.X$6vY''''''''''''''''''''''U*XXXXXp_''''''''''Y-.XXXX.r_'''''U$XXXXXXXXXXXXXXXXXXXXXXXXX]",
"]XXXXXXXXXOXXXXXXXXXXXXXX.p`'''''H#.#,yMP(''''''''''''''''''''''''(8.XXXX#S''''''''''U*XXXXXX>W'''''/6.XXXXXXXXXXXXXXXXXXXXXXXX]",
"]XXXXXXXXXXXXXXXXXXXXXXXX.1^'''''!gvH!`''''''''''''''''''''`(''''''g.XXXX.6~'''''''''U$XXXXXX#S''''''gXXXXXXXXXXXXXXXXXXXXXXXXX]",
"]XXXXXXXXXXXXXXXXXXXXXXXXX$L''''''_''''''''''''''''''''')UNar!'''''C+XXXXX.b'''''''''P$XXXXXX.z''''''VoXXXXXXXXXXXXXXXXXXXXXXXX]",
"]OXXXXXXXXXXXXXXXXXXXXXXX..m''''''''''''''''''''''''''''U1..+H'''''T=XXXXXX-U''''''''P$XXXXXX.0('''''T=XXXXXXXXXXXXXXXXXXXXXXXX]",
"]XXXXXXXXXXXXXXXXXXXXXX+>wvY'''''''''''''''''''''''''''''Z%X.b''''')w.XXXXX.u)'''''''J@XXXXXXX=Y''''')q.XXXXXXXXXXXXXXXXXXXXXXX]",
"]XXXXXXXXXXXXXXXXXXXXoiAR)''''''''''''''''''''''''''''''''Mo.w_'''''xXXXXXXX#C'''''''H#XXXXXXXoV''''''x.XXXXXXXXXXXXXXXXXXXXXXX]",
"]XXXXOXXXXXXXXXXXXXXX#D''''''''''''''''''''''''''''''''''')p.-R'''''D@XXXXXX.4Q''''''H+.XXXXXX.g''''''F#XXXXXXXXXXXXXXXXXXXXXXX]",
"]XXXXXXXXXXXXXXXXXXXX.x'''''''''''''''''''`~KNxjbH(''''''''Y:oZ'''''!,.XXXXXX.x''''''SoXXXXXXXX4^'''''W>XXXXXXXXXXXXXXXXXXXXXXX]",
"]XXXXXXXXXXXXXXXXXXXX.w)''''''''''''''`^LMu<@o...@0F`'''''''b.k'''''_y.XXXXXXX=L'''''AoXXXXXXXX$P'''''`tXXXXXXXXXXXXXXXXXXXXXXX]",
"]XXXXXXXXXXXXXXXXXXXXX=R''''''''''''RVg3$o..XXXXXX.#b`''''''W,8/'''''MXXXXXXXX.t)''''CoXXXXXXXXoM''''''nXXXXXXXXXXXXXXXXXXXXXXX]",
"]XXXXXXXXXXXXXXXXXXXXXOZ'')YCU''''''c...XXXXXXXXXXXX#N'''''''z%Y'''''L#XXXXXXXXoB''''BoXXXXXXXXXu`'''''K$XXXXXXXXXXXXXXXXXXXXXX]",
"]XXXXXXXXXXXXXXXXXXXXX.uFxq=.j''''''A+XXXXXXXXXXXXXXX,T''''''P%N'''''~3.XXXXXXXX1Y!Hx1XXXXXXXXXX<~'''''^1.XXXXXXXXXXXXXXXXXXXX]]",
"]]XXXXXOXXXXXXXXXXXXXXXOo..X.6/'''''E>XXXXXXXXXXXXXXX.z'''''')qi`''''`a.XXXXXXXXX<,@XXXXXXXXXXXX@H'''''`p.XXXXXXOXXXXXXXXXXXXX]]",
"]]XXXXXXXXXXXXXXXXXXXXXXXXXX.%U'''''_r.XXXXXXXXXXXXXX.<Q''''''b2/'''''BoXXXXXXXXXXXXXXXXXXXXXXXX.b''''''BoXXXXXXXXXXXXOXXXXXXX]]",
"]]XXXXXXXXXXXXXXXXXXXXXXXXXXXXN''''''b.XXXXXXXXXXXXXXXoV''''''J-K'''''Y=XXXXXXXXXXXXXXXXXXXXXXXX.e_'''''U$XXXXXXXXXXXXXXXXXXXX]]",
"]]XXXXXXXXXXXXXXXXXXXXXXXXXXX.p`'''''J$XXXXXXXXXXXXXXX.i`'''''~1n'''''(0.XXXXXXXXXXXXXXXXXXXXXXXX;R'''''(6.XXXXXXXXXXXXXXXXXXX]]",
"]]XXXXXXXXXXXXXXXXXXXXXXXXXXXX1~'''''!<.XXXXXXXXXXXXXXX,Q'''''`tr`'''''k.XXXXXXXXXXXXXXXXXXXXXXXXoA''''''k.XXXXXXXXXXXXXXXXXX]]]",
"]]]XOXXXXXXXXXXOXXXXXXXXXXXXXX#J'''''`i.XXXXXXXXXXXXXXX#H''''''c:Q'''''AoXXXXXXXXXXXXXXXXXXXXXXXX.k''''''ZoXXXXXXXXXXXXXXXXXX]]]",
"]]]OXXXXXXXXXXXXXXXXXXXXXXXXXX.n''''''MoXXXXXXXXXXXXXXXXn''''''C$H'''''R-XXXXXXXXXXXXXXXXXXXXXXXX.0('''''T-XXXXXXXXXXXXXXXXXX]]]",
"]]]XXXXXXXXXXXXXXXXXXXXXXXXXXXXr_'''''I$XXXXXXXXXXXXXXX.f`'''''K#x''''')w.XXXXXXXXXXXXXXXXXXXXXOXX=U''''')wXXXXXXXXXXXXXXXXX]]]]",
"]]]]XXXXXXXXXXXXXXXXXXXOXXXXXXX>Q'''''/6.XXXXXXXXXXXXXXXw_'''''Y%q)'''''b.XXXXXXXXXXXXXXXXXXXXXXXXoB''''''c.XXXXXXXXXOXXXXXX]]]]",
"]]]]XXXXXXXXXXXXXXXXXXXXXXXXXXX@S''''''gXXXXXXXXXXXXXXX.0)'''''R-=T'''''H#XXXXXXXXXXXXXXXXXXXXXXXX.d`'''''H@XXXXXXXXXXXXXXXX]]]]",
"]]]]XXXXXXXXXXXXXXXXXXXXXXXXXXXXz''''''CoXXXXXXXXXXXXXX.q)'''''W-oC'''''!<XXXXXXXXXXXXXXXOXXXXXXXXX3^'''''Q<.XXXXOXXXXXXXOX]]]]]",
"]]]]]XXXXXXXXXXXXXXXXXXXXXXXXXXXq)'''''Y=XXXXXXXXXXXXXX.u`'''''R-.h'''''_yXXXXXXXXXXXXXXXXXXXXXXXXX$L'''''`yXXXXXXXXXXXXXXX]]]]]",
"]]]]]XXXXXXOXXXXXXXXXXXXOXXXXXXX=Y''''')q.XXXXXXXXXXXXo.n''''''U=.6('''''MXXXXXXXXXXXXXXXXXXXXXXXXX.m'''`^K0XXXXXXXXXXXXXXX]]]]]",
"]]]]]]XXXXXXXXXXXXXXXXXXXXXXXXXXoB''''''zXXXXXXXXXXXXX.%I''''''J@X$U'''''P$XXXXXXXXXXXXXXXXXXXXXXXX.t~UBf3$XXXXXXXXXXXOXXX]]]]]]",
"]]]]]]XXXXXXXXXXXXXXXXXXXXXXXXXX.g''''''S#XXXXXXXXXXXX.i`''''''Bo..N'''''/4.XXXXXXXXXXXXXXXXXXXXXXXX@3=oXXXXXXXXXXXXXXXXXX]]]]]]",
"]]]]]]XXXXXXXXXXXXXXXXXXXXXXXXXX.4/'''''Q>XXXXXXXXXXXX;I'''''''j.X.p`''''`g.XXXXXXXXXXXXXXXXXXXXXXXXX.XXXXXXXXXXXXXXXXXXX]]]]]]]",
"]]]]]]]XXXXOXXXXXXXXXXXXXXXXXXXXX$P'''''_t.XXXXXXXXX.%C'''''''(0.X.1~'''''BoXXXXXXXXXXXXXXXXOXXXXXXXXXXXXXXXXXXXXXXXXXXXX]]]]]]]",
"]]]]]]]OXXXXXXXOXXXXXXXXXXXXXXXXXoM''''''n.XXXXXXX.o6F''''''''L$XXX$J'''''Y=XXXXXXXXXXXXXXXXXXXXXXXXXXXXXXXXXXXXXXOXXXXX]]]]]]]]",
"]]]]]]]]XXXXXXXXXXXXXXXXXXXXXXXXX.u`'''''J$XXXX.X$qN!'''''''''kXXXXXn'''''(0.XXXXXXXXXXXXXXXXXXXXXXXXXXXXXXXXXXXXXXXXXXX]]]]]]]]",
"]]]]]]]]XXXXXXXXXXXXXXXXXXXXXXXXXX<!'''''~1..o=qvP(''''''''''T:XXXX.r_'''''x.XXXXXXXXXXXXXXXXXXXXXXXXXXXXXXXXXXXXXXXXXX]]]]]]]]]",
"]]]]]]]]]XXXXXXXXXXXXXXXXXXXXXXXXX#H'''''`j4gCY)''''''''''''`jXXXXX.>W'''''BoXXXXXXXXXXXXXXXXXXXXXXXXXXXXXXXXOXXXXXXXXX]]]]]]]]]",
"]]]]]]]]]]XXXXXXXXXXXXXXXXXXXXXXXX.b''''''^/''''''''''''''''H$XXXXXX+D')YVg1XXXXXXXXXXXXXXXXXXXXXXXXXXXXXXXXXXXXXXXXXX]]]]]]]]]]",
"]]]]]]]]]]XXXOXXXXXXXXXXXOXXXXXXXX.w_''''''''''''''''''''''T1XXXXXXXXwx0-OXXOXXXXXXXXXXXOXXXXXXXXXXXXXXXXXXXXOXXXXXXXX]]]]]]]]]]",
"]]]]]]]]]]]XXXXXXOXXXXXXXXXXXXXXXXX>R'''''''''''''''''''''Rq.XXXXXXXXX.XXXXXXXXXXXXXXXXXXXXXXXXXXXXXXXXXXXXXXXXXXXXXX]]]]]]]]]]]",
"]]]]]]]]]]]]XXXXXXXXXXXXXXXXXOXXXXXoS''''''''''''''''''''I9XXXXXXXXXXXXXXXXXXXXXXXOXXXXXXXXXXXOXXXXXXXXXXXXXXXXXXXXX]]]]]]]]]]]]",
"]]]]]]]]]]]]XXXXXXXXXXXXXXXXXXXXXXX l''''''''''''''''''~m;XXXXXXXXXXXXXXXXXXXXXXXXXXXXXXXXXXXXXXXXXXXXXXXXXXXXXXXXXX]]]]]]]]]]]]",
"]]]]]]]]]]]]]XXXXXXXXXXXXXOXXXXXXXXX9(''''''''''''''`Yn3OXXXXXXXXXXXXXXXXXXXXXXXXXXXXXXXXXXXXXXXXXXXXXXXXXXXXXXXXXX]]]]]]]]]]]]]",
"]]]]]]]]]]]]]]XXXXXXXOXXXXXXXXXXXXXX=U'''''''''''/PNt-o.XXXXXXXXXXXXXXXXXXXXXXXXXXXXOXXXXXXXXXXXXXXXXXXXXXXXXXXXXX]]]]]]]]]]]]]]",
"]]]]]]]]]]]]]]XXXXXXXXXXXXXXXXXXXXXXOB''''''')YZg6$o.XXXXXXXXXXXXXXXXXXXXXXXXXXOXXOXXXXXXXXXXXXXXXXXXXXXXXXOXXXXO]]]]]]]]]]]]]]]",
"]]]]]]]]]]]]]]]XXXXXXXXXXXXXXXXXXXXXXf'''_WGxq-+.X.XXXXXXXXXXXXXXXXXXXXXXXXXXXXXXXXXXXXXXXXXXXXXXXXXXXXXXXXXXXXXX]]]]]]]]]]]]]]]",
"]]]]]]]]]]]]]]]]XXXOXXXXXXXXOXXXXXXXX1YKnt,#..XXXXXXXXXXXXXXXXXXXXXXXXXXXXXXXXXXXXXXXXXOXXXXXXXXXXXXXXXXXXXXXXXX]]]]]]]]]]]]]]]]",
"]]]]]]]]]]]]]]]]]XXXXXXXXXXXXXXXXXXXXo;$X XXXXXXXXXXXXXXXXXXXXXXXXXXXXXXXXXXXXXXXXXXXXXXXXXXXXXXXXXXXXXXXXXXXXX]]]]]]]]]]]]]]]]]",
"]]]]]]]]]]]]]]]]]]XXXXXXXXXXXXXXXXXXXXXXXXXXXXXXXXXXXXXXXXXXXXXXXXXXXXXXOXXXXXXXXXXXXXXXXXXXXOXXXXXXXXXXXXXXXX]]]]]]]]]]]]]]]]]]",
"]]]]]]]]]]]]]]]]]]]XOXXXXXXXXXXXXXXXXXXXXXXXXXXXXXXXXXXXXXXXXXXXXXXXXXXXXXXXXXXXXXXXXXXXXXOXXXXXXXXXXXXXXXXXX]]]]]]]]]]]]]]]]]]]",
"]]]]]]]]]]]]]]]]]]]]XXXXXXXXXXXXXXXXXXXXXXXXXXOXXXXXXXXXXXXXXXXXXXXXXXXXXXXXOXXXXXXXXXXXXXXXXXXXXXXXXXXXXXXX]]]]]]]]]]]]]]]]]]]]",
"]]]]]]]]]]]]]]]]]]]]]XXXXXXXXXXXXXXXXXXXXXXXXXXXXXXXXXXXXXXXXXXXXXXXXXXXXXXXXXXXXXXXXXXXXXXXXXXXXXXXXXXXXXX]]]]]]]]]]]]]]]]]]]]]",
"]]]]]]]]]]]]]]]]]]]]]]XXXXXXXOXXXXXXXXXXXXXXXXXXXXXXXXXXXXXXXXXXXXXXXXXXXXXXXXXXXXXOXXXXXXXXXXOXXXXXXXXXXX]]]]]]]]]]]]]]]]]]]]]]",
"]]]]]]]]]]]]]]]]]]]]]]]XXXXXXXXXXXXXXXXXXXXXXXXXXXXXXXXXXXXXXXXXXXXXXXXXXXXXXXXXXXXOXXXXXXXXXXXXXXXXXXXX]]]]]]]]]]]]]]]]]]]]]]]]",
"]]]]]]]]]]]]]]]]]]]]]]]]]XXXXXXOXXXXXXOXXXXXXXXXXXXXXXOXXXXXXXXXXXXXXXXXXXXXXXXXXXXXXXXXXXXXXXXXXXXXXXX]]]]]]]]]]]]]]]]]]]]]]]]]",
"]]]]]]]]]]]]]]]]]]]]]]]]]]XXXXXXXXXXXXXXXXXXXXOXXXXXXXXXXXOXXXXXXXXXXXXXXXXXXXXXXXXXXXXXXXXXXXXXXXXXXX]]]]]]]]]]]]]]]]]]]]]]]]]]",
"]]]]]]]]]]]]]]]]]]]]]]]]]]]XXXXXXXOXXXXXXXXXXXXXXXXXXXXXXXXXXXXXXXXXXXXXXXXXXXXXXXXXXXXXXXXOXXXXXOXXX]]]]]]]]]]]]]]]]]]]]]]]]]]]",
"]]]]]]]]]]]]]]]]]]]]]]]]]]]]]XXXXXXXXXOXXXXXXXXXXXXXXXXXXXXXXXXXXXXXXXXXXXXXXXXXXXXXXXXXXXXXXXXXXXX]]]]]]]]]]]]]]]]]]]]]]]]]]]]]",
"]]]]]]]]]]]]]]]]]]]]]]]]]]]]]]XXXXXXXXXXXXXXXXXXXOXXXXXXXXXXXOXXXXXXXXXXXXXXXXXXXXXXXXXXXXXXXXXXXX]]]]]]]]]]]]]]]]]]]]]]]]]]]]]]",
"]]]]]]]]]]]]]]]]]]]]]]]]]]]]]]]]XXXXXXXXXXOXXXXXXXXXXXXXXOXXXXXXXXXXXXXXXXXXXXXXXXXXXXXXXXXXXXXX]]]]]]]]]]]]]]]]]]]]]]]]]]]]]]]]",
"]]]]]]]]]]]]]]]]]]]]]]]]]]]]]]]]]]XXXXXXXXXXXXXXXXXXXXXXXXXXXXXXXXXXXXXXXXXXXXXXOXXXXXXXXXXXOX]]]]]]]]]]]]]]]]]]]]]]]]]]]]]]]]]]",
"]]]]]]]]]]]]]]]]]]]]]]]]]]]]]]]]]]]]XXXXXXXXXXXXXXXXXXXXXXXXXXXXXXXXXXXXXXXXXXXXXXXXXXXXXXXX]]]]]]]]]]]]]]]]]]]]]]]]]]]]]]]]]]]]",
"]]]]]]]]]]]]]]]]]]]]]]]]]]]]]]]]]]]]]]XXXXXXXXXXXXXOXXXXXXOXXXXXXXXXXXXXXXXXXXXXXXXXOXXXXX]]]]]]]]]]]]]]]]]]]]]]]]]]]]]]]]]]]]]]",
"]]]]]]]]]]]]]]]]]]]]]]]]]]]]]]]]]]]]]]]]XXXXXXXXXXXXXXXXXXXXXXXXOXXXXXXXXXOXXXXXXXXXXXXX]]]]]]]]]]]]]]]]]]]]]]]]]]]]]]]]]]]]]]]]",
"]]]]]]]]]]]]]]]]]]]]]]]]]]]]]]]]]]]]]]]]]]]XOXXXXXXXXXXXXXXXXXXXXXXXXXOXXXXXXXXXXXXXX]]]]]]]]]]]]]]]]]]]]]]]]]]]]]]]]]]]]]]]]]]]",
"]]]]]]]]]]]]]]]]]]]]]]]]]]]]]]]]]]]]]]]]]]]]]]XXXXXXXXXXXXXXXXXXXXXXXXXXXXXXXOXXXX]]]]]]]]]]]]]]]]]]]]]]]]]]]]]]]]]]]]]]]]]]]]]]",
"]]]]]]]]]]]]]]]]]]]]]]]]]]]]]]]]]]]]]]]]]]]]]]]]]XXXXXOXXXXXXXXXXXXXXXXXXXXXXXX]]]]]]]]]]]]]]]]]]]]]]]]]]]]]]]]]]]]]]]]]]]]]]]]]",
"]]]]]]]]]]]]]]]]]]]]]]]]]]]]]]]]]]]]]]]]]]]]]]]]]]]]]]XXXXXXOXXXXXXXXXXXX]]]]]]]]]]]]]]]]]]]]]]]]]]]]]]]]]]]]]]]]]]]]]]]]]]]]]]]",
"]]]]]]]]]]]]]]]]]]]]]]]]]]]]]]]]]]]]]]]]]]]]]]]]]]]]]]]]]]]]]]]]]]]]]]]]]]]]]]]]]]]]]]]]]]]]]]]]]]]]]]]]]]]]]]]]]]]]]]]]]]]]]]]]"
};
