/* XPM */
static char *bitmark64[] = {
/* columns rows colors chars-per-pixel */
"68 68 73 1 ",
"  c #2E0063",
". c #330066",
"X c #350867",
"o c #360668",
"O c #38076A",
"+ c #370969",
"@ c #3A0C6B",
"# c #3E116E",
"$ c #40146F",
"% c #411671",
"& c #451B74",
"* c #481F76",
"= c #492077",
"- c #4D2479",
"; c #4E297A",
": c #532C7E",
"> c #562F80",
", c #563080",
"< c #593483",
"1 c #5E3B86",
"2 c #613F88",
"3 c #64438B",
"4 c #68478E",
"5 c #69488F",
"6 c #6D4D91",
"7 c #6F5093",
"8 c #725395",
"9 c #775A99",
"0 c #7B5E9C",
"q c #7D629E",
"w c #8166A1",
"e c #856DA4",
"r c #886FA5",
"t c #8971A6",
"y c #8C74A9",
"u c #8F78AB",
"i c #927BAD",
"p c #957FB0",
"a c #9582AF",
"s c #9782B1",
"d c #9A85B3",
"f c #9E8AB6",
"g c #A18EB9",
"h c #A593BC",
"j c #AA98BF",
"k c #AD9CC1",
"l c #B09FC4",
"z c #B3A3C6",
"x c #B6A7C8",
"c c #B7A9C9",
"v c #BAACCB",
"b c #BFB2CE",
"n c #C0B3CF",
"m c #C2B6D1",
"M c #C5B9D3",
"N c #C9BED6",
"B c #CDC3D9",
"V c #D0C6DC",
"C c #D3CADE",
"Z c #D7CFE1",
"A c #DAD3E4",
"S c #DFD9E7",
"D c #E2DDEA",
"F c #E6E2EC",
"G c #E9E5EE",
"H c #EBE7F0",
"J c #EDEAF2",
"K c #F1EEF4",
"L c #F3F1F6",
"P c #F6F4F8",
"I c #F8F7FA",
"U c #FFFFFF",
"Y c None",
/* pixels */
"YYYYYYYYYYYYYYYYYYYYYYYYYYYYY.........YYYYYYYYYYYYYYYYYYYYYYYYYYYYYY",
"YYYYYYYYYYYYYYYYYYYYYYYYY..............O...YYYYYYYYYYYYYYYYYYYYYYYYY",
"YYYYYYYYYYYYYYYYYYYYYY........................YYYYYYYYYYYYYYYYYYYYYY",
"YYYYYYYYYYYYYYYYYYYY..........O.................YYYYYYYYYYYYYYYYYYYY",
"YYYYYYYYYYYYYYYYYY.................O..............YYYYYYYYYYYYYYYYYY",
"YYYYYYYYYYYYYYYY....................................YYYYYYYYYYYYYYYY",
"YYYYYYYYYYYYYY..........O............................YYYYYYYYYYYYYYY",
"YYYYYYYYYYYYY.....O....................................YYYYYYYYYYYYY",
"YYYYYYYYYYYY.......................................O....YYYYYYYYYYYY",
"YYYYYYYYYYY.........O....................................YYYYYYYYYYY",
"YYYYYYYYYY.................................... ...........YYYYYYYYYY",
"YYYYYYYYY...........................O.......o=60@..........YYYYYYYYY",
"YYYYYYYY..................................OwvDIG;...........YYYYYYYY",
"YYYYYYY...................................%AUUUI9............YYYYYYY",
"YYYYYY....................................*SUUUUh.....O......YYYYYYY",
"YYYYYY...................... o&4;.........*DUUUUV#............YYYYYY",
"YYYYY......................&tcSIc@........*DUUUUJ< ............YYYYY",
"YYYYY............... ..... 5IUUUI0........-FUUUUUw ............YYYYY",
"YYYY............. o%;<*o ..=DUUUUA=...... ;GUUUUUl..............YYYY",
"YYYY......... .&2ycAHKSz3..ovUUUUUgo......;GUKHUUA&.............YYYY",
"YYY........#<qzALUUUUUUUJwo yUUUUUJ3 .....;HUDvUUL3 ............OYYY",
"YYY.......&mJUUUUUUUUUUUUK7 2LUUUUUM#.... :JUAyUUUy  oo..........YYY",
"YY........$CUUUUUUUUUUUUUUV$%AUUIUUIe ... ,JUA3GUUm3yv7 ..........YY",
"YY....O....hUUUUUIDmhgCUUUIq.lUUFCUUD:....,LUA&NUUIPUUk...........YY",
"YY.........0UUUDf6-+. &cUUUv.wUUKaHUUko.. <KUC@dUUUUUUZ%..........YY",
"Y.......O..:GUUno .... :GUUF=,JUUufUUL7 . 1LUV@6IUUUJCf#...........Y",
"Y..........@MUUD-......ozUUI4@VUUb;ZUUV&. 1LUB@-DUUS2#. ...........Y",
"Y.......... dUUI6 ..... wUUUw gUUD=qIUUi. 3PUN@obUUG;.-,O..........Y",
"Y.O.........6IUUf...... 3LUUe 9IUI7+vUUG< 4PUM+ uUUIzcDZ=..........Y",
"Y...........=SUUB@......,JUUq ;FUUf 1GUUc+4PUmo 3LUUUUUP5..........Y",
"............ovUUG: .... 2LUP3 XmUUB@.dUUI95IUvo.&AUUUUUUy...........",
"............ yUUU0 .....dUUD37fFUUH: &CUUZeIUvo..zUUUAh0*...........",
"............ 2LUUj..  @qJUUKFIUUUUIq .9PUUAIUz.. eUUUt. ............",
".............%AUUC$%2yMLUUUUUUUUUUUj..+zUUUUUl.. <JUUzo...........O.",
"..............kUUPbALUUUUUUUUUFnAUUZ$..<FUUUUk...#CUUA&.............",
"............+*hUUUUUUUUUUUUUUUaotUUK1 . iUUUUh....hUUL3 ............",
"...........;cDIUUUUUUUUUUUUUUUJ4<LUUe ..&BUUUg... 0IUUi.............",
"...........;FUUUUUUUULAziyxKUUUV:CUUco.. 7LUUf ...;GUUbo...........Y",
"Y..........+mUIPUUUBy1%.  o7DUUUrjUUS&...+kUUd ...@MUUD;...........Y",
"Y...........qh8tIUUi ...... wIUUBtUUP4 ...:Nc2.... dUUI8...........Y",
"Y............. ;GUUm@.......%CUUJeGUUp ....#O..... 6PUUf...........Y",
"Y..............@MUUF;........pUUUaBUUm@............*DUUB@..........Y",
"Y...............aUUI8 ...... 3LUUxfUUF; ...........ovUUH:.........YY",
"YY..............4IUUg........*DUUBqIUI8 ........... yUUUq ......O.YY",
"YY.....O........&DUUB@.......#VUUS2FUUg.............2KUUk.........YY",
"YY..............ocUUJ:.......@VUUD;bUUV@............&AUUZ%........YY",
"YYY............. tUUUq ..... ;FUUA%uUUH,.............kISj%.......YYY",
"YYY..............1LUUko..... eUUUB+4PUUq ............,4&.........YYY",
"YYYY...O........ $ZUUZ%.... 3DUUUh &SUUk........................YYYY",
"YYYY.............okUUL1  o;iDUUUP6 ozUUZ&.......................YYYY",
"YYYYY............ qUUUp1yvGUUUUUb@. eUUH<......................YYYYY",
"YYYYY.............:HUULLUUUUUUUF1...<cs4#.....O................YYYYY",
"YYYYYY............@BUUUUUUUUUUF8.....@. ......................YYYYYY",
"YYYYYYY......O.....fUUUUUUUUJx<..............................YYYYYYY",
"YYYYYYY........... 8IUUUIDbu1+ ..............................YYYYYYY",
"YYYYYYYY...........;DJBf8-+.................................YYYYYYYY",
"YYYYYYYYY.O........O4,@......................O.............YYYYYYYYY",
"YYYYYYYYYY................................................YYYYYYYYYY",
"YYYYYYYYYYY....................O.........................YYYYYYYYYYY",
"YYYYYYYYYYYY..........................................O.YYYYYYYYYYYY",
"YYYYYYYYYYYYY...................................O......YYYYYYYYYYYYY",
"YYYYYYYYYYYYYYY.O....................................YYYYYYYYYYYYYYY",
"YYYYYYYYYYYYYYYY..........................O.........YYYYYYYYYYYYYYYY",
"YYYYYYYYYYYYYYYYYY................................YYYYYYYYYYYYYYYYYY",
"YYYYYYYYYYYYYYYYYYYY.................O..........YYYYYYYYYYYYYYYYYYYY",
"YYYYYYYYYYYYYYYYYYYYYY.....O..................YYYYYYYYYYYYYYYYYYYYYY",
"YYYYYYYYYYYYYYYYYYYYYYYYY.................YYYYYYYYYYYYYYYYYYYYYYYYYY",
"YYYYYYYYYYYYYYYYYYYYYYYYYYYYYYY......YYYYYYYYYYYYYYYYYYYYYYYYYYYYYYY"
};
