/* XPM */
static char *bitmark32[] = {
/* columns rows colors chars-per-pixel */
"32 32 132 2 ",
"   c #2F0063",
".  c #300064",
"X  c #310064",
"o  c #310065",
"O  c #320065",
"+  c #330066",
"@  c #330266",
"#  c #340267",
"$  c #350267",
"%  c #350367",
"&  c #350368",
"*  c #370569",
"=  c #370669",
"-  c #38076A",
";  c #39086B",
":  c #3B096C",
">  c #3B0A6C",
",  c #3C0B6D",
"<  c #3C0C6D",
"1  c #3D0D6E",
"2  c #3E0E6E",
"3  c #3F0F6F",
"4  c #40106F",
"5  c #411170",
"6  c #411270",
"7  c #411271",
"8  c #421371",
"9  c #411471",
"0  c #421471",
"q  c #431472",
"w  c #441572",
"e  c #451673",
"r  c #451774",
"t  c #461774",
"y  c #461874",
"u  c #471875",
"i  c #471975",
"p  c #481975",
"a  c #481A75",
"s  c #481A76",
"d  c #481B76",
"f  c #491B76",
"g  c #491C77",
"h  c #4A1C77",
"j  c #4B1D78",
"k  c #4B1E78",
"l  c #4B1F78",
"z  c #4C1E78",
"x  c #4C1F78",
"c  c #4C1F79",
"v  c #4C2079",
"b  c #4D2079",
"n  c #4D2179",
"m  c #4E217A",
"M  c #4E227A",
"N  c #4F227B",
"B  c #4F237B",
"V  c #4F267B",
"C  c #50237B",
"Z  c #50247C",
"A  c #51257C",
"S  c #51267D",
"D  c #52267D",
"F  c #52277D",
"G  c #53277D",
"H  c #53287E",
"J  c #54287E",
"K  c #54297E",
"L  c #54297F",
"P  c #552A7F",
"I  c #552B7F",
"U  c #552B80",
"Y  c #562B80",
"T  c #562C80",
"R  c #572D81",
"E  c #582E81",
"W  c #582E82",
"Q  c #592F82",
"!  c #593082",
"~  c #5A3083",
"^  c #5B3284",
"/  c #5C3384",
"(  c #5C3385",
")  c #5D3485",
"_  c #5D3585",
"`  c #5E3586",
"'  c #5E3686",
"]  c #5F3687",
"[  c #5F3787",
"{  c #603887",
"}  c #603888",
"|  c #613988",
" . c #623A89",
".. c #633C8A",
"X. c #6B4690",
"o. c #9B82B4",
"O. c #A48DBA",
"+. c #A791BD",
"@. c #B19EC5",
"#. c #B29EC5",
"$. c #B9A8CB",
"%. c #BAA8CB",
"&. c #D4C9DE",
"*. c #D5CADF",
"=. c #DCD3E5",
"-. c #DCD4E5",
";. c #DED5E6",
":. c #DFD7E7",
">. c #DFD8E7",
",. c #E0D9E8",
"<. c #E1DAE8",
"1. c #E1DAE9",
"2. c #E2DBE9",
"3. c #E5DFEC",
"4. c #E6E0EC",
"5. c #E8E2ED",
"6. c #E8E3EE",
"7. c #EBE6F0",
"8. c #EBE7F0",
"9. c #ECE7F0",
"0. c #ECE7F1",
"q. c #ECE8F1",
"w. c #EDE8F1",
"e. c #EDE9F2",
"r. c #EEEAF2",
"t. c #F9F8FB",
"y. c #FCFBFC",
"u. c #FCFBFD",
"i. c #FDFDFE",
"p. c #FFFEFF",
"a. c gray100",
"s. c None",
/* pixels */
"s.s.s.s.s.s.^ W I H B h s.s.s.s.s.s.s.s.s.s.s.s.s.s.s.s.s.s.s.s.",
"s.s.s.s.` ` W Y H B v h e q s.s.s.s.s.s.s.s.s.s.s.s.s.s.s.s.s.s.",
"s.s.s.| ` ! T F B j i t q 4 2 s.s.s.s.s.s.s.s.s.s.s.s.s.s.s.s.s.",
"s.s.| ` W T F B j i t 5 2 ; = + s.s.s.s.s.s.s.s.s.s.s.s.s.s.s.s.",
"s.| ] ^ W F C z i q 5 2 , ; + + O s.s.s.s.s.s.s.s.s.s.s.s.s.s.s.",
"s.| ( W K F z z ^ T 4 ; * + + + + s.s.s.s.s.s.s.s.s.s.s.s.s.s.s.",
"| ` ^ Y F z | $.6.4.+.t + + + + + + s.s.s.s.s.s.s.s.s.s.s.s.s.s.",
"` ` T H B B %.p.p.p.p.o.+ + + + + + s.s.s.s.s.s.s.s.s.s.s.s.s.s.",
"` ^ K F h { 5.p.p.p.p.&.3 O O + + + s.s.s.s.s.s.s.s.s.s.s.s.s.s.",
"^ T F B h | q.p.p.p.p.-.e O O + + + s.s.s.s.s.s.s.s.s.s.s.s.s.s.",
"^ T F z h ` q.p.p.p.p.-.5 O + + + + s.s.s.s.s.s.s.s.s.s.s.s.s.s.",
"T H B j e ` q.p.p.p.p.=.e O + + + + s.s.s.s.s.s.s.s.s.s.s.s.s.s.",
"T F B h 5 ( q.p.p.p.p.-.q O + + + + s.s.s.s.s.s.s.s.s.s.s.s.s.s.",
"K F j h 5 ! q.p.p.p.p.=.q O + + + + s.s.s.s.s.s.s.s.s.s.s.s.s.s.",
"J B j t 5 ! 0.p.p.p.p.=.q O O + + + + + + + + + + + s.s.s.s.s.s.",
"F B h e 2 ! 0.p.p.p.p.-.q O + + + + + + + + + + + + + + s.s.s.s.",
"F B h q 2 W q.p.p.p.p.=.t O O O + + + + + + + + + + + + + s.s.s.",
"B v i q 2 T q.p.p.p.p.=.5 O + O + + + + O O + + + + + + + + s.s.",
"B h t 5 ; Y 8.p.p.p.p.-.q O O O O O O O O O O O + + + + + + + s.",
"` ! Y F j | q.p.p.p.p.>.H 5 q q q q q e q q q 4 + O + + + + + s.",
"2.1.>.-.-.2.p.p.p.p.p.t.>.=.=.-.=.=.-.=.=.=.-.&.o.5 O O + + + + ",
"p.p.p.p.p.p.p.p.p.p.p.p.p.p.p.p.p.p.p.p.p.p.p.p.p.O.= O + + + + ",
"p.p.p.p.p.p.p.p.p.p.p.p.p.p.p.p.p.p.p.p.p.p.p.p.p.2.j O + + + + ",
"p.p.p.p.p.p.p.p.p.p.p.p.p.p.p.p.p.p.p.p.p.p.p.p.p.4.v O + + + + ",
"p.p.p.p.p.p.p.p.p.p.p.p.p.p.p.p.p.p.p.p.p.p.p.p.p.@.* + + + + + ",
"8.8.8.8.8.q.p.p.p.p.p.y.q.8.8.8.8.8.8.8.8.8.8.4.@.v O + + + + + ",
"F B F F B X.q.p.p.p.p.1.` B H B B H B H F F F j = O O + + + + s.",
"O O O .   B 8.p.p.p.p.=.q . . O O . O . O . O O O O O + + + + s.",
"+ + + + O S 8.p.p.p.p.=.q O + + O + + + + + + + + + + + + + s.s.",
"+ + + + O S 8.p.p.p.p.-.q O + + + + + + + + + + + + + + + s.s.s.",
"+ + + + . H 8.p.p.p.p.=.q O + + + + + + + + + + + + + + s.s.s.s.",
"+ + + O O B 8.p.p.p.p.-.q O + + + + + + + + + + + + s.s.s.s.s.s."
};
