/* XPM */
static char *bitmark16[] = {
/* columns rows colors chars-per-pixel */
"16 16 81 1 ",
"  c #2F0063",
". c #300064",
"X c #310065",
"o c #320065",
"O c #320066",
"+ c #330066",
"@ c #340167",
"# c #360568",
"$ c #370469",
"% c #370569",
"& c #380669",
"* c #39076A",
"= c #39086A",
"- c #3F0E6F",
"; c #421371",
": c #431472",
"> c #451673",
", c #451774",
"< c #461874",
"1 c #461974",
"2 c #471975",
"3 c #491B76",
"4 c #4A1D77",
"5 c #4B1E78",
"6 c #4C1F79",
"7 c #4C2079",
"8 c #4D2079",
"9 c #4D2179",
"0 c #4D2279",
"q c #4D217A",
"w c #4E227A",
"e c #4E227B",
"r c #50247C",
"t c #51257C",
"y c #51267D",
"u c #52267D",
"i c #52277D",
"p c #53287E",
"a c #552B80",
"s c #562C80",
"d c #582E81",
"f c #592F82",
"g c #593083",
"h c #5A3083",
"j c #5C3384",
"k c #5D3485",
"l c #5E3586",
"z c #5F3687",
"x c #603787",
"c c #603888",
"v c #613988",
"b c #66408C",
"n c #67408D",
"m c #9A81B4",
"M c #9D84B5",
"N c #A48DBB",
"B c #AE9AC2",
"V c #DED6E6",
"C c #E0D8E8",
"Z c #E1DAE9",
"A c #E2DAE9",
"S c #E3DBEA",
"D c #E4DDEB",
"F c #E4DEEB",
"G c #E5DFEC",
"H c #E6E0ED",
"J c #E8E2EE",
"K c #E8E3EE",
"L c #E9E3EE",
"P c #E9E4EF",
"I c #EAE4EF",
"U c #EAE5EF",
"Y c #EAE5F0",
"T c #EBE6F0",
"R c #EBE7F0",
"E c #ECE7F1",
"W c #FBFAFC",
"Q c #FCFBFD",
"! c #FDFCFD",
"~ c gray100",
"^ c None",
/* pixels */
"^^kdi4,^^^^^^^^^",
"^xhi4,-%^^^^^^^^",
"vjpih;%@^^^^^^^^",
"ksiBLM%o@^^^^^^^",
"hivI~V,oo^^^^^^^",
"s6kY~Z2o@^^^^^^^",
"p3hI~Z2oo^^^^^^^",
"i,hI~Z2oo@@o@^^^",
"0:sP~Z2 oooooo@^",
"ksbI~Ff2232,%o@o",
"HFHQ~QFZZZZCm%o@",
"~~~~~~~~~~~~S3oo",
"LHE~~QYLLLYPN*@@",
"eebI~Gceeee4=o@o",
"  eI~Z2.oooo@oo^",
"@ eL~Z2oooo@o@^^"
};
