/* XPM */
static char *bitmark32[] = {
/* columns rows colors chars-per-pixel */
"32 32 244 2 ",
"   c #2C0061",
".  c #2D0062",
"X  c #2E0062",
"o  c #2E0063",
"O  c #2F0063",
"+  c #300063",
"@  c #300064",
"#  c #310064",
"$  c #310065",
"%  c #320065",
"&  c #320066",
"*  c #330066",
"=  c #320166",
"-  c #330166",
";  c #340166",
":  c #340167",
">  c #350367",
",  c #350467",
"<  c #350368",
"1  c #360568",
"2  c #370569",
"3  c #370669",
"4  c #370769",
"5  c #38076A",
"6  c #38086A",
"7  c #39086A",
"8  c #38096A",
"9  c #39096B",
"0  c #390B6B",
"q  c #3A0B6B",
"w  c #3A0A6C",
"e  c #3B0B6C",
"r  c #3B0C6C",
"t  c #3C0E6D",
"y  c #3D0E6D",
"u  c #3E106E",
"i  c #3F106F",
"p  c #3F116F",
"a  c #421671",
"s  c #451973",
"d  c #451A74",
"f  c #461A74",
"g  c #471A75",
"h  c #491E77",
"j  c #4A1E77",
"k  c #4A1F77",
"l  c #4B2078",
"z  c #4D2279",
"x  c #4E237A",
"c  c #4F257B",
"v  c #50267C",
"b  c #51267C",
"n  c #50277C",
"m  c #52297D",
"M  c #532A7E",
"N  c #542C7F",
"B  c #552C7F",
"V  c #542D7F",
"C  c #552D7F",
"Z  c #562F81",
"A  c #573081",
"S  c #593383",
"D  c #5A3383",
"F  c #5B3584",
"G  c #5C3685",
"H  c #623D89",
"J  c #633E8A",
"K  c #64408A",
"L  c #65408B",
"P  c #66448D",
"I  c #67458D",
"U  c #68448E",
"Y  c #68458E",
"T  c #69468E",
"R  c #6A478F",
"E  c #6C4A91",
"W  c #6E4C92",
"Q  c #6E4D93",
"!  c #6F4D93",
"~  c #704F94",
"^  c #705093",
"/  c #705194",
"(  c #715095",
")  c #735296",
"_  c #735396",
"`  c #745497",
"'  c #755597",
"]  c #765798",
"[  c #78589A",
"{  c #78599A",
"}  c #785A9A",
"|  c #795B9B",
" . c #7A5B9B",
".. c #7B5C9C",
"X. c #7B5E9C",
"o. c #7C5D9D",
"O. c #7C5F9D",
"+. c #7D609D",
"@. c #7D609E",
"#. c #7E619E",
"$. c #7F619F",
"%. c #7F639F",
"&. c #8265A1",
"*. c #8366A2",
"=. c #8469A3",
"-. c #8569A3",
";. c #866CA5",
":. c #876CA5",
">. c #8A6FA7",
",. c #8B72A8",
"<. c #8C72A9",
"1. c #8E75AA",
"2. c #8E75AB",
"3. c #9077AC",
"4. c #9179AD",
"5. c #947CAF",
"6. c #957DB0",
"7. c #967FB0",
"8. c #9882B2",
"9. c #9A83B3",
"0. c #9A85B3",
"q. c #9A84B4",
"w. c #9B84B4",
"e. c #9C86B5",
"r. c #9D86B5",
"t. c #9D87B6",
"y. c #9D89B6",
"u. c #9F88B7",
"i. c #A08AB7",
"p. c #A08AB8",
"a. c #A18CB8",
"s. c #A28DB9",
"d. c #A38FBA",
"f. c #A48FBB",
"g. c #A390BA",
"h. c #A490BA",
"j. c #A591BC",
"k. c #A895BE",
"l. c #A996BE",
"z. c #A996BF",
"x. c #AA97BF",
"c. c #AB99C0",
"v. c #AC9AC0",
"b. c #AF9DC3",
"n. c #B09FC4",
"m. c #B2A1C5",
"M. c #B3A2C6",
"N. c #B4A3C6",
"B. c #B4A4C7",
"V. c #B6A6C8",
"C. c #B8A8C9",
"Z. c #B8A9CA",
"A. c #B9A9CA",
"S. c #B8ABCA",
"D. c #B9AACB",
"F. c #BDAECD",
"G. c #BFB0CF",
"H. c #C0B3D0",
"J. c #C2B5D1",
"K. c #C3B5D2",
"L. c #C4B7D3",
"P. c #C5B8D3",
"I. c #C5BAD3",
"U. c #C5B9D4",
"Y. c #C6B9D4",
"T. c #C6BAD4",
"R. c #C7BBD5",
"E. c #C8BCD6",
"W. c #C9BDD6",
"Q. c #CBBFD8",
"!. c #CBC0D8",
"~. c #CCC2D9",
"^. c #CDC2D9",
"/. c #CDC3DA",
"(. c #CFC4DB",
"). c #D0C6DC",
"_. c #D1C7DC",
"`. c #D1C9DD",
"'. c #D2C9DD",
"]. c #D2C9DE",
"[. c #D3C9DE",
"{. c #D3CADE",
"}. c #D4CADF",
"|. c #D5CCDF",
" X c #D6CDE0",
".X c #D6CEE0",
"XX c #D7CEE1",
"oX c #D7CFE1",
"OX c #D8CFE2",
"+X c #D8D0E2",
"@X c #D9D1E3",
"#X c #DBD4E4",
"$X c #DED8E7",
"%X c #E0DAE8",
"&X c #E1DBE9",
"*X c #E2DDEA",
"=X c #E3DDEA",
"-X c #E4DFEB",
";X c #E5DFEB",
":X c #E5E0EC",
">X c #E6E1EC",
",X c #E7E1ED",
"<X c #E7E2ED",
"1X c #E7E3ED",
"2X c #E8E3ED",
"3X c #E8E4EE",
"4X c #E9E4EE",
"5X c #E9E5EF",
"6X c #EBE6F0",
"7X c #EAE7F0",
"8X c #EBE7F0",
"9X c #EDE9F1",
"0X c #EEEBF2",
"qX c #EFECF3",
"wX c #F0EDF4",
"eX c #F1EFF5",
"rX c #F2EFF5",
"tX c #F2F0F5",
"yX c #F2F0F6",
"uX c #F3F1F6",
"iX c #F4F3F7",
"pX c #F5F3F7",
"aX c #F6F4F8",
"sX c #F7F5F9",
"dX c #F7F6F9",
"fX c #F9F7FA",
"gX c #F9F8FA",
"hX c #F9F8FB",
"jX c #FAF9FB",
"kX c #FAFAFC",
"lX c #FBFAFC",
"zX c #FBFBFC",
"xX c #FCFBFC",
"cX c #FCFBFD",
"vX c #FCFCFD",
"bX c #FDFCFD",
"nX c #FDFDFD",
"mX c #FDFDFE",
"MX c #FEFDFE",
"NX c #FEFEFE",
"BX c #FEFEFF",
"VX c #FEFFFF",
"CX c gray100",
"ZX c None",
/* pixels */
"ZXZXZXZXZXZXZXZXZXZXZXZX* * * * * * * * ZXZXZXZXZXZXZXZXZXZXZXZX",
"ZXZXZXZXZXZXZXZXZXZX* * * * * * * * * * * * ZXZXZXZXZXZXZXZXZXZX",
"ZXZXZXZXZXZXZXZX* * * * * * * * * * * * * * * * ZXZXZXZXZXZXZXZX",
"ZXZXZXZXZXZX* * * * * * * * * * * * * * * * * * * * ZXZXZXZXZXZX",
"ZXZXZXZXZX* * * * * * * * * * * * * * * * . * * * * * ZXZXZXZXZX",
"ZXZXZXZX* * * * * * * * * * * * * * * * m &.~ * * * * * ZXZXZXZX",
"ZXZXZX* * * * * * * * * * . * * * * * , S.NXY.w * * * * * ZXZXZX",
"ZXZXZX* * * * * * . * * 3 L 6.L * * * 3 L.NX3Xv * * * * * ZXZXZX",
"ZXZX* * * * . * i m v 3 t /.NX~.a + * 9 E.NXxX] . : * * * * ZXZX",
"ZXZX* * : v ..x.}.9X8Xb.s k.NXNX4.* * 9 Q.:XzXj.. * * * * * ZXZX",
"ZX* * * 3 S.NXNXNXuXdXNXa.$.zXzX:XS * 9 /.K.$X@X&.( : * * * * ZX",
"ZX* * * * w.NXI.o.D ( 2X:X! 7X.X3XS.9 w ].v.B.NXNXH.9 : * * * ZX",
"* * * * * E zXy.. * * a.NX{ W.+Xh.aX} q }.a.-.NXb.Z 9 * * * * * ",
"* * * * * h :X~.q * . { NX..8.uX( _.@XV .Xp.D uX.XI.[ . * * * * ",
"* * * * * , F.qXN . . -.zX$.5.NX;.! pXx.#Xw.y }.NX&X$.* * * * * ",
"* * * * * . ,.NX&.z $.$XvX3XaXNXC.9 m.zXfX6.. x.zX! * * * * * * ",
"* * * * * 9 $.zX3X3XNXNXNXNXB./.&Xs V :XNX4.. { NX1.+ * * * * * ",
"* * * * + ( qXNXNXuX].M.I.zX~.g.dXT . 1.NX,.. m 9XH.3 * * * * * ",
"* * * * * V i.!.zX$.y * t x.vXS.aX5.. a x.I * w ~.:Xk * * * * * ",
"* * * * * * . $.NX-.. * * F uX].*XI.9 * , * * + w.NX! + * * * ZX",
"ZX* * * * * . A uXV., : * i .X$XI.3Xc * * * * . ! zXw.* * * * ZX",
"ZX* * * * * * y _.&Xf * * y ].*X0.zX' + * * * * k *XV.3 * * * ZX",
"ZXZX* * * * * * a.zXI . . E uX].P rXd.: * * * * 3 S k * * * ZXZX",
"ZXZX* * * * * * ' NXp.H w.:XNXw.i ].I.9 * * * * * * * * * * ZXZX",
"ZXZXZX* * * * * c :XzXdXNXNXE.k * H D 3 * * * * * * * * * ZXZXZX",
"ZXZXZX* * * * * 8 L.NX:XK.>.s @ * * + * * * * * * * * * * ZXZXZX",
"ZXZXZXZX* * * * * I ' z 5 * * * * * * * * * * * * * * * ZXZXZXZX",
"ZXZXZXZXZX* * * * * @ * * * * * * * * * * * * * * * * ZXZXZXZXZX",
"ZXZXZXZXZXZX* * * * * * * * * * * * * * * * * * * * ZXZXZXZXZXZX",
"ZXZXZXZXZXZXZXZX* * * * * * * * * * * * * * * * ZXZXZXZXZXZXZXZX",
"ZXZXZXZXZXZXZXZXZXZX* * * * * * * * * * * * ZXZXZXZXZXZXZXZXZXZX",
"ZXZXZXZXZXZXZXZXZXZXZXZXZX* * * * * * ZXZXZXZXZXZXZXZXZXZXZXZXZX"
};
