/* XPM */
static char *bitmark64[] = {
/* columns rows colors chars-per-pixel */
"64 64 71 1 ",
"  c #2F0063",
". c #330066",
"X c #360668",
"o c #380769",
"O c #370869",
"+ c #3A0B6B",
"@ c #3E116E",
"# c #421671",
"$ c #441A73",
"% c #481F76",
"& c #4A2177",
"* c #4D2479",
"= c #4F287B",
"- c #522B7D",
"; c #573181",
": c #593483",
"> c #5E3B87",
", c #613E89",
"< c #65428B",
"1 c #68478D",
"2 c #69498F",
"3 c #6D4D91",
"4 c #6F5093",
"5 c #725496",
"6 c #755798",
"7 c #775999",
"8 c #795C9B",
"9 c #7E629E",
"0 c #8167A1",
"q c #856BA3",
"w c #886FA6",
"e c #8670A5",
"r c #8A71A7",
"t c #8E76AA",
"y c #917BAD",
"u c #9781B1",
"i c #9A85B3",
"p c #9E8AB6",
"a c #A08BB7",
"s c #A18EB9",
"d c #A592BB",
"f c #A896BE",
"g c #AA99BF",
"h c #AD9CC1",
"j c #B2A2C5",
"k c #B6A7C8",
"l c #B7A8C9",
"z c #BBADCC",
"x c #BEB1CE",
"c c #C0B3CF",
"v c #C1B4D1",
"b c #C5B9D3",
"n c #C9BED6",
"m c #CDC3DA",
"M c #D0C7DC",
"N c #D3CADE",
"B c #D7CEE1",
"V c #DBD4E4",
"C c #DFD9E7",
"Z c #E0D9E7",
"A c #E2DCE9",
"S c #E6E1EC",
"D c #E9E5EF",
"F c #EBE7F0",
"G c #EEEBF2",
"H c #F1EEF4",
"J c #F3F1F6",
"K c #F6F5F9",
"L c #F8F7FA",
"P c #FFFEFF",
"I c None",
/* pixels */
"IIIIIIIIIIIIIIIIIIIIIIIIIII......o..IIIIIIIIIIIIIIIIIIIIIIIIIIII",
"IIIIIIIIIIIIIIIIIIIIIII..................IIIIIIIIIIIIIIIIIIIIIII",
"IIIIIIIIIIIIIIIIIIII.................o......IIIIIIIIIIIIIIIIIIII",
"IIIIIIIIIIIIIIIIII...o........................IIIIIIIIIIIIIIIIII",
"IIIIIIIIIIIIIIII................................IIIIIIIIIIIIIIII",
"IIIIIIIIIIIIII..........o..........X.............IIIIIIIIIIIIIII",
"IIIIIIIIIIIII........o.............................IIIIIIIIIIIII",
"IIIIIIIIIIII...................o....................IIIIIIIIIIII",
"IIIIIIIIIII........................X.................IIIIIIIIIII",
"IIIIIIIIII........................................o...IIIIIIIIII",
"IIIIIIIII................................ .@-o.........IIIIIIIII",
"IIIIIIII................................$8gNA:..........IIIIIIII",
"IIIIIII...........................X.....rPPPPq .....o....IIIIIII",
"IIIIII..................................yPPPPlX...........IIIIII",
"IIIIII......................@;*.........uPPPPC$.X.........IIIIII",
"IIIII....................o4dNHx@........iPPPPK1 ...........IIIII",
"IIII............... . ...@mPPPLq .......pPPPPPy.............IIII",
"IIIIo.......... .@-<<*X...gPPPPC=...... sPPPPPvo............IIII",
"III........ .+-8gMDKKSh-. 8PPPPPgX......dPLZPPS*.............III",
"III.......%3pnFPPPPPPPPV> -DPPPPJ3 .... fPKhKPL5.............III",
"II........fPPPPPPPPPPPPPm$+nPPPPPm#.....gPKqAPPp.+*+..........II",
"II....... rPPPPPPPPJKPPPPy.pPPJJPPy ....hPK2xPPVpnA2..........II",
"II....o.. >JPPPFms8>1kLPPN#3LPFxPPS:....jPK>tPPPPPPi..........II",
"I.........#BPPM:+. . @cPPJ1&APLymPPjO...kPJ:<KPPPPPjX.........II",
"I..........hPPV$..... 3KPPyXxPPh5KPK8..XkPH:#CPPDd5*...........I",
"I...X......0PPK1 .....$VPPj.yPPB$jPPN&..zPH;.kPPB@ .o..........I",
"I.o........;FPPy......XzPPxX<JPJ>-SPPi.XxPF- qPPJ9qly........o.I",
"I..........+mPPvO..... dPPx.$VPPr tPPG,XvPF- :HPPLPPM@.........I",
".....o......pPPS*......fPPf  jPPzX@mPPc$vPD*.@NPPPPPG;..........",
"........... 5LPL5 ....$NPPq-8mPPC% 3JPLebPS* .fPPPAkq$.....o....",
"............*SPPp..  #dPPLVDPPPPK2 XhPPSAPA%. 8PPL7.............",
"............OvPPm@$1uNLPPPPPPPPPPu. -ZPPPPC$..-DPPu ............",
"............ tPPJvCKPPPPPPPPSxMPPbo. rLPPPC#..+nPPbO............",
"...........+=iPPPPPPPPPPPPPPx@7PPD=..@bPPPV@...iPPS=............",
"..........+hFLPPPPPPPPPLPPPPLy-SPP6 ..2HPPB@.. 3LPP6 ...........",
"...........zPPPPPPPHMf927xLPPF<bPPd....dPPB@...&APPs............",
"I......... wLSCPPPp;@.   +pPPPgiPPM@...*VPn+...XxPPM@..........I",
"I..........%4*<HPPq ......$mPPAqKPH: .. 4t:.....tPPF;..........I",
"I........... .#NPPzX...... rPPLyCPP9............<JPP0 .........I",
"I..............fPPC%.......-FPPhzPPjX...........$VPPj..........I",
"I............. 8PPK2.......@mPPbuPPV#............jPPV$........II",
"II.............-DPPu .......jPPV5HPJ<........... 0PPJ,........II",
"II.............@nPPbo.......fPPA:BPPt ...........:GPPt........II",
"II..o...........iPPS=......OxPPZ%hPPxX...........@MPHi.......III",
"III............ 4LPL6 .... -SPPN+9PPA&............8q:@.......III",
"III.............*APPd.... @hPPPj :FPL3 ...........  .......o.III",
"IIII............XxPPm@ .@1xLPPL7 @mPPp......................IIII",
"IIII.............tPPH33iMJPPPPm#. dPPxO.....................IIII",
"IIIII.o......o...<JPPFLPPPPPPH2 ..2jq;....o................IIIII",
"IIIIII...........$VPPPPPPPPPS8.........o..................IIIIII",
"IIIIII............jPPPPPPPDj>.............................IIIIII",
"IIIIIII.......... 0PPPJVh9-X.............................IIIIIII",
"IIIIIIII..........;Bzr,$X .....................o........IIIIIIII",
"IIIIIIIII.........X#X..................................IIIIIIIII",
"IIIIIIIIII...............................o............IIIIIIIIII",
"IIIIIIIIIII....o.....................................IIIIIIIIIII",
"IIIIIIIIIIII.....X..................................IIIIIIIIIIII",
"IIIIIIIIIIIII..........X....X......................IIIIIIIIIIIII",
"IIIIIIIIIIIIIIIo.........X.................o..o..IIIIIIIIIIIIIII",
"IIIIIIIIIIIIIIII................................IIIIIIIIIIIIIIII",
"IIIIIIIIIIIIIIIIII....X.....X.......X.........IIIIIIIIIIIIIIIIII",
"IIIIIIIIIIIIIIIIIIIII.............X........IIIIIIIIIIIIIIIIIIIII",
"IIIIIIIIIIIIIIIIIIIIIIII................IIIIIIIIIIIIIIIIIIIIIIII",
"IIIIIIIIIIIIIIIIIIIIIIIIIIIII......IIIIIIIIIIIIIIIIIIIIIIIIIIIII"
};
