/* XPM */
static char *bitmark16[] = {
/* columns rows colors chars-per-pixel */
"16 16 101 2 ",
"   c #2F0063",
".  c #300063",
"X  c #300064",
"o  c #310064",
"O  c #310065",
"+  c #320065",
"@  c #320066",
"#  c #330066",
"$  c #330266",
"%  c #340267",
"&  c #370669",
"*  c #39096B",
"=  c #3B0B6C",
"-  c #3B0D6C",
";  c #3E0E6E",
":  c #3F0F6F",
">  c #3F106F",
",  c #40116F",
"<  c #411170",
"1  c #411271",
"2  c #411571",
"3  c #421471",
"4  c #431572",
"5  c #441773",
"6  c #431972",
"7  c #471A75",
"8  c #471B75",
"9  c #481C76",
"0  c #491C76",
"q  c #4A1E77",
"w  c #4B1F78",
"e  c #4B2078",
"r  c #4B2178",
"t  c #552C80",
"y  c #562C80",
"u  c #562D81",
"i  c #572F81",
"p  c #593283",
"a  c #5B3384",
"s  c #5C3484",
"d  c #5E3786",
"f  c #69448E",
"g  c #6B4990",
"h  c #6C4991",
"j  c #6D4991",
"k  c #6D4A92",
"l  c #714F95",
"z  c #725095",
"x  c #775699",
"c  c #7D5E9D",
"v  c #8669A5",
"b  c #866AA5",
"n  c #886CA6",
"m  c #8C71A9",
"M  c #8E74AA",
"N  c #9075AC",
"B  c #9076AC",
"V  c #9177AC",
"C  c #9277AD",
"Z  c #937AAE",
"A  c #9780B1",
"S  c #9880B2",
"D  c #9A83B3",
"F  c #9B84B4",
"G  c #9E88B6",
"H  c #A490BB",
"J  c #AC99C1",
"K  c #AF9DC3",
"L  c #B19FC5",
"P  c #B2A1C6",
"I  c #B3A2C6",
"U  c #B6A5C8",
"Y  c #B7A7C9",
"T  c #B8A8CA",
"R  c #B9A8CA",
"E  c #B9A9CB",
"W  c #B9AACB",
"Q  c #BAABCC",
"!  c #BBACCC",
"~  c #BCADCD",
"^  c #BCAECD",
"/  c #BDAECD",
"(  c #BDAFCE",
")  c #C4B6D3",
"_  c #C6B9D4",
"`  c #C7BAD5",
"'  c #C9BED7",
"]  c #CABED7",
"[  c #CBBFD8",
"{  c #CFC4DB",
"}  c #D1C7DD",
"|  c #D1C8DD",
" . c #D4CADF",
".. c #D4CBDF",
"X. c #D5CCDF",
"o. c #D9D2E2",
"O. c #E3DCEA",
"+. c #E3DDEA",
"@. c #E4DEEA",
"#. c #E4DEEB",
"$. c None",
/* pixels */
"$.$.$.$.$.# # # # # # $.$.$.$.$.",
"$.$.$.# # # # # # # . # # $.$.$.",
"$.$.# # # # # # # % t 8 # # $.$.",
"$.# # #     8 a # ; { V   # $.$.",
"$.# < j S v v +.p > X.! * # # $.",
"#   z +.L [ J +.K q T ..F * # # ",
"# # r ( - g Y W ( M H U W q # # ",
"# # < W j N ....V ` P v { q # # ",
"# # q { +...+...A v W d W , & % ",
"# # > V W < j o.^ 9 p > W r . % ",
"# # # q ^ 2 6 ' ' i   # S z . % ",
"$.# # & P c V ) G x . # 5 > # $.",
"$.$.# # m +.` f 2 2 # # # # $.$.",
"$.$.# # 5 t * # # # # # # # $.$.",
"$.$.$.$.# . # # # # # # $.$.$.$.",
"$.$.$.$.$.# # # # # # $.$.$.$.$."
};
