/* XPM */
static char *bitmark128[] = {
/* columns rows colors chars-per-pixel */
"128 128 59 1 ",
"  c #2D0062",
". c #330066",
"X c #360468",
"o c #38076A",
"O c #3C0C6D",
"+ c #3F106F",
"@ c #40106F",
"# c #431472",
"$ c #471975",
"% c #491B76",
"& c #4B1E78",
"* c #4E217A",
"= c #51257C",
"- c #54297E",
"; c #562C80",
": c #582E82",
"> c #5C3385",
", c #603787",
"< c #603887",
"1 c #633C8A",
"2 c #67418D",
"3 c #69438E",
"4 c #6C4690",
"5 c #6E4992",
"6 c #714D94",
"7 c #7D5D9E",
"8 c #8363A2",
"9 c #8668A4",
"0 c #8A6DA7",
"q c #8D71A9",
"w c #9075AC",
"e c #977DB1",
"r c #987EB2",
"t c #9C83B4",
"y c #A691BD",
"u c #AD98C1",
"i c #B29EC5",
"p c #B5A2C7",
"a c #B6A4C9",
"s c #B9A7CA",
"d c #BCABCD",
"f c #C0B0CF",
"g c #C2B2D1",
"h c #C6B8D4",
"j c #C9BCD7",
"k c #CEC2DB",
"l c #D4C9DE",
"z c #D5CBE0",
"x c #D8CFE2",
"c c #E4DDEB",
"v c #E7E1ED",
"b c #E8E2EE",
"n c #EEEAF2",
"m c #F2EFF6",
"M c #F4F1F6",
"N c #F7F5F9",
"B c #F9F7FA",
"V c #FFFFFF",
"C c None",
/* pixels */
"CCCCCCCCCCCCCCCCCCCCCCCCCCCCC:::;;;;=;====CCCCCCCCCCCCCCCCCCCCCCCCCCCCCCCCCCCCCCCCCCCCCCCCCCCCCCCCCCCCCCCCCCCCCCCCCCCCCCCCCCCCCC",
"CCCCCCCCCCCCCCCCCCCCCCCCC>>>:>::;;;;;*;*=*===&CCCCCCCCCCCCCCCCCCCCCCCCCCCCCCCCCCCCCCCCCCCCCCCCCCCCCCCCCCCCCCCCCCCCCCCCCCCCCCCCCC",
"CCCCCCCCCCCCCCCCCCCCCC>>>>>:::::;;;;===;=****&&%&CCCCCCCCCCCCCCCCCCCCCCCCCCCCCCCCCCCCCCCCCCCCCCCCCCCCCCCCCCCCCCCCCCCCCCCCCCCCCCC",
"CCCCCCCCCCCCCCCCCCCC<<>>>>:>:::-;;==;*=**=*%&&%%%%%CCCCCCCCCCCCCCCCCCCCCCCCCCCCCCCCCCCCCCCCCCCCCCCCCCCCCCCCCCCCCCCCCCCCCCCCCCCCC",
"CCCCCCCCCCCCCCCCCC>1>>>>>>::::-;;=;;===***&&&&%%%%%%#CCCCCCCCCCCCCCCCCCCCCCCCCCCCCCCCCCCCCCCCCCCCCCCCCCCCCCCCCCCCCCCCCCCCCCCCCCC",
"CCCCCCCCCCCCCCCCC11><>>>::::::;-;=*===***&&&&%%%$$##$##CCCCCCCCCCCCCCCCCCCCCCCCCCCCCCCCCCCCCCCCCCCCCCCCCCCCCCCCCCCCCCCCCCCCCCCCC",
"CCCCCCCCCCCCCCC111,1>>>>>:::-;--;===****&*&&%%$$#$#####@CCCCCCCCCCCCCCCCCCCCCCCCCCCCCCCCCCCCCCCCCCCCCCCCCCCCCCCCCCCCCCCCCCCCCCCC",
"CCCCCCCCCCCCCC<1>>>>>>>>:::-:---=====***&%%%%%$$$#####+#++CCCCCCCCCCCCCCCCCCCCCCCCCCCCCCCCCCCCCCCCCCCCCCCCCCCCCCCCCCCCCCCCCCCCCC",
"CCCCCCCCCCCCC1<,<<>>>>::::;;---=;**=**&%&%%$$$$$#####@@@@+OCCCCCCCCCCCCCCCCCCCCCCCCCCCCCCCCCCCCCCCCCCCCCCCCCCCCCCCCCCCCCCCCCCCCC",
"CCCCCCCCCCC111<,<>>>>::::;;--=-===***%*&&%%$$$######@@@OOOOOCCCCCCCCCCCCCCCCCCCCCCCCCCCCCCCCCCCCCCCCCCCCCCCCCCCCCCCCCCCCCCCCCCCC",
"CCCCCCCCCC111,<,>>>>::::-;---===****&*%%$$$$#$#####O@@+OOOOoOCCCCCCCCCCCCCCCCCCCCCCCCCCCCCCCCCCCCCCCCCCCCCCCCCCCCCCCCCCCCCCCCCCC",
"CCCCCCCCC,1111>><>>:>:::;---====***&%%%%&$$$####@@#+O+OOOOOoooCCCCCCCCCCCCCCCCCCCCCCCCCCCCCCCCCCCCCCCCCCCCCCCCCCCCCCCCCCCCCCCCCC",
"CCCCCCCCC11,>1>1>>:>::;;--=====***&&%&$$$$$#####@@@+OOOOooooooXCCCCCCCCCCCCCCCCCCCCCCCCCCCCCCCCCCCCCCCCCCCCCCCCCCCCCCCCCCCCCCCCC",
"CCCCCCCC1111,>,>>>:::;;----===***&&%&&$$$$####@@@+OOOOOOoOooXXX.CCCCCCCCCCCCCCCCCCCCCCCCCCCCCCCCCCCCCCCCCCCCCCCCCCCCCCCCCCCCCCCC",
"CCCCCCC111<<,>>>>>::;;----===***&&&&$$$$$$####@@+O+OOOooooXXX.XX.CCCCCCCCCCCCCCCCCCCCCCCCCCCCCCCCCCCCCCCCCCCCCCCCCCCCCCCCCCCCCCC",
"CCCCCC111<,,>>>>::::;:---===****&%%%%$$$####@#@OO+OOOoooooXXXX...CCCCCCCCCCCCCCCCCCCCCCCCCCCCCCCCCCCCCCCCCCCCCCCCCCCCCCCCCCCCCCC",
"CCCCCC111,1<>>>:::::;-=-===****&%%%%$$$$###@@@++OOOOooooXXXXX.....CCCCCCCCCCCCCCCCCCCCCCCCCCCCCCCCCCCCCCCCCCCCCCCCCCCCCCCCCCCCCC",
"CCCCC111>1>>>>>>:::;;;-===****&&%%%$$$#####@@@OOOOoOOooXXX........CCCCCCCCCCCCCCCCCCCCCCCCCCCCCCCCCCCCCCCCCCCCCCCCCCCCCCCCCCCCCC",
"CCCC11111>>>>>:::;;-;=====***&&%%%$$######@@@@OOOoooXXXXX..........CCCCCCCCCCCCCCCCCCCCCCCCCCCCCCCCCCCCCCCCCCCCCCCCCCCCCCCCCCCCC",
"CCCC11<<1>>>>>:::;;---===**&&*%%%$$$$###+@#OOOOOOooooXXX............CCCCCCCCCCCCCCCCCCCCCCCCCCCCCCCCCCCCCCCCCCCCCCCCCCCCCCCCCCCC",
"CCC111,,,,>>>:::;;;-===****&%%&%%#$$####+@#OOOOoooooXXX.............CCCCCCCCCCCCCCCCCCCCCCCCCCCCCCCCCCCCCCCCCCCCCCCCCCCCCCCCCCCC",
"CCC11,,,>>>>>:::;;--====***&&%%%%$#####@#OOOOOOoooXXX...........X....CCCCCCCCCCCCCCCCCCCCCCCCCCCCCCCCCCCCCCCCCCCCCCCCCCCCCCCCCCC",
"CC111,,,>>>>:::;;---===***&&%%%$$###O@@@OOOOOOoooXXX.X...............CCCCCCCCCCCCCCCCCCCCCCCCCCCCCCCCCCCCCCCCCCCCCCCCCCCCCCCCCCC",
"CC<11<,>>>>:::;;--====***&%%%%$#&:355<*OOOOOoooooXX.X................CCCCCCCCCCCCCCCCCCCCCCCCCCCCCCCCCCCCCCCCCCCCCCCCCCCCCCCCCCC",
"CC1<11>>>>::::;---===***&%%%%$<ejvMNNnxu5#oOooXXXXX...................CCCCCCCCCCCCCCCCCCCCCCCCCCCCCCCCCCCCCCCCCCCCCCCCCCCCCCCCCC",
"C11<>>,>>:>::;;;-===***&&&%%=tcVVVVVVVVVNd1oooXXX.....................CCCCCCCCCCCCCCCCCCCCCCCCCCCCCCCCCCCCCCCCCCCCCCCCCCCCCCCCCC",
"C,<1<<>>>>:::;---====**&&%%<gVVVVVVVVVVVVVb8ooXX.X....................CCCCCCCCCCCCCCCCCCCCCCCCCCCCCCCCCCCCCCCCCCCCCCCCCCCCCCCCCC",
"C11>>>>>::::;--====***&&%%<lVVVVVVVVVVVVVVVM9XX...............X........CCCCCCCCCCCCCCCCCCCCCCCCCCCCCCCCCCCCCCCCCCCCCCCCCCCCCCCCC",
"C1,1<>>>:::-;--====**&&&%-hVVVVVVVVVVVVVVVVVn5.........................CCCCCCCCCCCCCCCCCCCCCCCCCCCCCCCCCCCCCCCCCCCCCCCCCCCCCCCCC",
",1>>>>>>::::----==***&&%%tVVVVVVVVVVVVVVVVVVVl%........................CCCCCCCCCCCCCCCCCCCCCCCCCCCCCCCCCCCCCCCCCCCCCCCCCCCCCCCCC",
",11>>>>::::;--===****&%%<cVVVVVVVVVVVVVVVVVVVVq........................CCCCCCCCCCCCCCCCCCCCCCCCCCCCCCCCCCCCCCCCCCCCCCCCCCCCCCCCC",
">>>>>>>:::----===***%%%%eVVVVVVVVVVVVVVVVVVVVVl#.......................CCCCCCCCCCCCCCCCCCCCCCCCCCCCCCCCCCCCCCCCCCCCCCCCCCCCCCCCC",
"1>,>>:>:;;;--===****&%%*jVVVVVVVVVVVVVVVVVVVVVN2.......................CCCCCCCCCCCCCCCCCCCCCCCCCCCCCCCCCCCCCCCCCCCCCCCCCCCCCCCCC",
">,>>>>::;;---===***%%%%>vVVVVVVVVVVVVVVVVVVVVVVq ......................CCCCCCCCCCCCCCCCCCCCCCCCCCCCCCCCCCCCCCCCCCCCCCCCCCCCCCCCC",
">>>>>::;;-;--=***&&*%%$5mVVVVVVVVVVVVVVVVVVVVVVy.......................CCCCCCCCCCCCCCCCCCCCCCCCCCCCCCCCCCCCCCCCCCCCCCCCCCCCCCCCC",
"11>>::::;--====***&%&%#6NVVVVVVVVVVVVVVVVVVVVVVi.......................CCCCCCCCCCCCCCCCCCCCCCCCCCCCCCCCCCCCCCCCCCCCCCCCCCCCCCCCC",
">>>>::;;:--==*=**&&%%%#6NVVVVVVVVVVVVVVVVVVVVVVp.......................CCCCCCCCCCCCCCCCCCCCCCCCCCCCCCCCCCCCCCCCCCCCCCCCCCCCCCCCC",
",>>::::;---===**&&%%%%#6NVVVVVVVVVVVVVVVVVVVVVVpX......................CCCCCCCCCCCCCCCCCCCCCCCCCCCCCCCCCCCCCCCCCCCCCCCCCCCCCCCCC",
">>>:::;:---==***&&%%%##6NVVVVVVVVVVVVVVVVVVVVVVp.......................CCCCCCCCCCCCCCCCCCCCCCCCCCCCCCCCCCCCCCCCCCCCCCCCCCCCCCCCC",
">>>:>:---===***&&%%%%##6NVVVVVVVVVVVVVVVVVVVVVVpX......................CCCCCCCCCCCCCCCCCCCCCCCCCCCCCCCCCCCCCCCCCCCCCCCCCCCCCCCCC",
">::::;;--===***&&%%%#$#5NVVVVVVVVVVVVVVVVVVVVVVp.......................CCCCCCCCCCCCCCCCCCCCCCCCCCCCCCCCCCCCCCCCCCCCCCCCCCCCCCCCC",
">>>:::---===**&&%%%$%##6NVVVVVVVVVVVVVVVVVVVVVVpX......................CCCCCCCCCCCCCCCCCCCCCCCCCCCCCCCCCCCCCCCCCCCCCCCCCCCCCCCCC",
">:::;----==**&&&%%%##%@6NVVVVVVVVVVVVVVVVVVVVVVp.......................CCCCCCCCCCCCCCCCCCCCCCCCCCCCCCCCCCCCCCCCCCCCCCCCCCCCCCCCC",
">>:::---===***&&%%%$##@5NVVVVVVVVVVVVVVVVVVVVVVpX......................CCCCCCCCCCCCCCCCCCCCCCCCCCCCCCCCCCCCCCCCCCCCCCCCCCCCCCCCC",
"::::;---==***&&%%%#$%#+6NVVVVVVVVVVVVVVVVVVVVVVp.......................CCCCCCCCCCCCCCCCCCCCCCCCCCCCCCCCCCCCCCCCCCCCCCCCCCCCCCCCC",
">::;;-=====*&&&%%$$###O5NVVVVVVVVVVVVVVVVVVVVVVpX......................CCCCCCCCCCCCCCCCCCCCCCCCCCCCCCCCCCCCCCCCCCCCCCCCCCCCCCCCC",
"::;;;--==***&&%%$$$###@5NVVVVVVVVVVVVVVVVVVVVVVp.......................CCCCCCCCCCCCCCCCCCCCCCCCCCCCCCCCCCCCCCCCCCCCCCCCCCCCCCCCC",
"::;;;-===***&&%%%%####O5NVVVVVVVVVVVVVVVVVVVVVVpX..............X.......CCCCCCCCCCCCCCCCCCCCCCCCCCCCCCCCCCCCCCCCCCCCCCCCCCCCCCCCC",
"::;;--===***&%%$$#####O5NVVVVVVVVVVVVVVVVVVVVVVp.......................CCCCCCCCCCCCCCCCCCCCCCCCCCCCCCCCCCCCCCCCCCCCCCCCCCCCCCCCC",
"::;--===***&&%%%$$$##+O4NVVVVVVVVVVVVVVVVVVVVVVp.................X.....CCCCCCCCCCCCCCCCCCCCCCCCCCCCCCCCCCCCCCCCCCCCCCCCCCCCCCCCC",
"::;;-===***&&%%$$###@#O5NVVVVVVVVVVVVVVVVVVVVVVpX......................CCCCCCCCCCCCCCCCCCCCCCCCCCCCCCCCCCCCCCCCCCCCCCCCCCCCCCCCC",
":;;=-===***&%%%%$####+O5NVVVVVVVVVVVVVVVVVVVVVVp.......................CCCCCCCCCCCCCCCCCCCCCCCCCCCCCCCCCCCCCCCCCCCCCCCCCCCCCCCCC",
";;;--==***&&%%$%$###++O4NVVVVVVVVVVVVVVVVVVVVVVpX......................CCCCCCCCCCCCCCCCCCCCCCCCCCCCCCCCCCCCCCCCCCCCCCCCCCCCCCCCC",
":;--====**&%%%$#####++O4NVVVVVVVVVVVVVVVVVVVVVVp.......................CCCCCCCCCCCCCCCCCCCCCCCCCCCCCCCCCCCCCCCCCCCCCCCCCCCCCCCCC",
";;=-==***&&%%%$$$##@@+o4NVVVVVVVVVVVVVVVVVVVVVVpX......................CCCCCCCCCCCCCCCCCCCCCCCCCCCCCCCCCCCCCCCCCCCCCCCCCCCCCCCCC",
";-;;===*&&&%%$%####@@OO4NVVVVVVVVVVVVVVVVVVVVVVp.......................CCCCCCCCCCCCCCCCCCCCCCCCCCCCCCCCCCCCCCCCCCCCCCCCCCCCCCCCC",
";;-===***&&&%$#$##@@O+o4NVVVVVVVVVVVVVVVVVVVVVVp..........X.............CCCCCCCCCCCCCCCCCCCCCCCCCCCCCCCCCCCCCCCCCCCCCCCCCCCCCCCC",
";=-==*=*&&&%%%$####@#Oo4NVVVVVVVVVVVVVVVVVVVVVVpX....................................................CCCCCCCCCCCCCCCCCCCCCCCCCCC",
"-;-===**&&%%%##$##@@+Oo4NVVVVVVVVVVVVVVVVVVVVVVp....................................X...................CCCCCCCCCCCCCCCCCCCCCCCC",
"---==***&&%%$$$###@+@Oo3NVVVVVVVVVVVVVVVVVVVVVVpX..........................................................CCCCCCCCCCCCCCCCCCCCC",
";-====*&&%%%$$##@@@OOOo3NVVVVVVVVVVVVVVVVVVVVVVp.............................................................CCCCCCCCCCCCCCCCCCC",
";====***&&%$$#$##@#O+Oo4NVVVVVVVVVVVVVVVVVVVVVVpX......................X......................................CCCCCCCCCCCCCCCCCC",
"-;===**&&%%%$$###@@+OOo3NVVVVVVVVVVVVVVVVVVVVVVp................................................................CCCCCCCCCCCCCCCC",
"-===***&&%%%$####@+OOOo3NVVVVVVVVVVVVVVVVVVVVVVp.......................................................XX.........CCCCCCCCCCCCCC",
"-===***&%%%$$####@#OOOX3NVVVVVVVVVVVVVVVVVVVVVVp...................................................................CCCCCCCCCCCCC",
"--===*&&&%$$$#####OOOoo3NVVVVVVVVVVVVVVVVVVVVVVpX...................................................................CCCCCCCCCCCC",
"-==***&&%%$$$###O@@OOoX3NVVVVVVVVVVVVVVVVVVVVVVp.....................................................................CCCCCCCCCCC",
"--==**&&&%%$$##@#OOOOOX3NVVVVVVVVVVVVVVVVVVVVVVp...........................X..........................................CCCCCCCCCC",
"====**&&%%$$$####OOOOoo3NVVVVVVVVVVVVVVVVVVVVVVpX....X.................................................................CCCCCCCCC",
"-==*=&&&%%$$###@O#OOOoX3NVVVVVVVVVVVVVVVVVVVVVVp........................................................................CCCCCCCC",
"====**&%%%$$$##@#++OOo.3NVVVVVVVVVVVVVVVVVVVVVVpX..............................................X.........................CCCCCCC",
"-==**&&%%$$$####O+OOOoX3NVVVVVVVVVVVVVVVVVVVVVVp......................................X..........................X.......CCCCCCC",
"===***&&%$#$##@@#OOOOO.3NVVVVVVVVVVVVVVVVVVVVVVp..........................................................................CCCCCC",
"==*=*&&%%$%####+@OOOoo.3NVVVVVVVVVVVVVVVVVVVVVVpX..........................................................................CCCCC",
"-==**&&%%$$#####OOOOOOX3NVVVVVVVVVVVVVVVVVVVVVVp............X..............................................................CCCCC",
"==***&&%%%$$###@#OOOoo.2NVVVVVVVVVVVVVVVVVVVVVVp............................................................................CCCC",
"===**&&&%$$##+#@@OOOooX3NVVVVVVVVVVVVVVVVVVVVVVp............................................................................CCCC",
"-=**&&&%%$$####@@OOOoo.2NVVVVVVVVVVVVVVVVVVVVVVpX............................................................................CCC",
"==**&&&%$$$$##@@@OOooo.3NVVVVVVVVVVVVVVVVVVVVVVp.................................................................X...........CCC",
"===**&&&%$$#$#@##OOOOoX3NVVVVVVVVVVVVVVVVVVVVVVpX.X..X.X..X..X..X..XX.X..X.X.X.X..X..X.X.X..... ..........X...................CC",
"ffdfdddddddddsdassssaapjBVVVVVVVVVVVVVVVVVVVVVVcppppppppppppppppppppppppppppppppppppppppppppiyq2#.............................CC",
"VVVVVVVVVVVVVVVVVVVVVVVVVVVVVVVVVVVVVVVVVVVVVVVVVVVVVVVVVVVVVVVVVVVVVVVVVVVVVVVVVVVVVVVVVVVVVVVNlq% ..........................CC",
"VVVVVVVVVVVVVVVVVVVVVVVVVVVVVVVVVVVVVVVVVVVVVVVVVVVVVVVVVVVVVVVVVVVVVVVVVVVVVVVVVVVVVVVVVVVVVVVVVVl5...........................C",
"VVVVVVVVVVVVVVVVVVVVVVVVVVVVVVVVVVVVVVVVVVVVVVVVVVVVVVVVVVVVVVVVVVVVVVVVVVVVVVVVVVVVVVVVVVVVVVVVVVVn8X.........................C",
"VVVVVVVVVVVVVVVVVVVVVVVVVVVVVVVVVVVVVVVVVVVVVVVVVVVVVVVVVVVVVVVVVVVVVVVVVVVVVVVVVVVVVVVVVVVVVVVVVVVVm7.........................C",
"VVVVVVVVVVVVVVVVVVVVVVVVVVVVVVVVVVVVVVVVVVVVVVVVVVVVVVVVVVVVVVVVVVVVVVVVVVVVVVVVVVVVVVVVVVVVVVVVVVVVVv> .......................C",
"VVVVVVVVVVVVVVVVVVVVVVVVVVVVVVVVVVVVVVVVVVVVVVVVVVVVVVVVVVVVVVVVVVVVVVVVVVVVVVVVVVVVVVVVVVVVVVVVVVVVVVdo........................",
"VVVVVVVVVVVVVVVVVVVVVVVVVVVVVVVVVVVVVVVVVVVVVVVVVVVVVVVVVVVVVVVVVVVVVVVVVVVVVVVVVVVVVVVVVVVVVVVVVVVVVVm3........................",
"VVVVVVVVVVVVVVVVVVVVVVVVVVVVVVVVVVVVVVVVVVVVVVVVVVVVVVVVVVVVVVVVVVVVVVVVVVVVVVVVVVVVVVVVVVVVVVVVVVVVVVVy................X.......",
"VVVVVVVVVVVVVVVVVVVVVVVVVVVVVVVVVVVVVVVVVVVVVVVVVVVVVVVVVVVVVVVVVVVVVVVVVVVVVVVVVVVVVVVVVVVVVVVVVVVVVVVl@.......................",
"VVVVVVVVVVVVVVVVVVVVVVVVVVVVVVVVVVVVVVVVVVVVVVVVVVVVVVVVVVVVVVVVVVVVVVVVVVVVVVVVVVVVVVVVVVVVVVVVVVVVVVVn- ......................",
"VVVVVVVVVVVVVVVVVVVVVVVVVVVVVVVVVVVVVVVVVVVVVVVVVVVVVVVVVVVVVVVVVVVVVVVVVVVVVVVVVVVVVVVVVVVVVVVVVVVVVVVM1.......................",
"VVVVVVVVVVVVVVVVVVVVVVVVVVVVVVVVVVVVVVVVVVVVVVVVVVVVVVVVVVVVVVVVVVVVVVVVVVVVVVVVVVVVVVVVVVVVVVVVVVVVVVVN1.......................",
"VVVVVVVVVVVVVVVVVVVVVVVVVVVVVVVVVVVVVVVVVVVVVVVVVVVVVVVVVVVVVVVVVVVVVVVVVVVVVVVVVVVVVVVVVVVVVVVVVVVVVVVm> ......................",
"VVVVVVVVVVVVVVVVVVVVVVVVVVVVVVVVVVVVVVVVVVVVVVVVVVVVVVVVVVVVVVVVVVVVVVVVVVVVVVVVVVVVVVVVVVVVVVVVVVVVVVVc&.........X.............",
"VVVVVVVVVVVVVVVVVVVVVVVVVVVVVVVVVVVVVVVVVVVVVVVVVVVVVVVVVVVVVVVVVVVVVVVVVVVVVVVVVVVVVVVVVVVVVVVVVVVVVVVgO.......................",
"VVVVVVVVVVVVVVVVVVVVVVVVVVVVVVVVVVVVVVVVVVVVVVVVVVVVVVVVVVVVVVVVVVVVVVVVVVVVVVVVVVVVVVVVVVVVVVVVVVVVVVVq........................",
"VVVVVVVVVVVVVVVVVVVVVVVVVVVVVVVVVVVVVVVVVVVVVVVVVVVVVVVVVVVVVVVVVVVVVVVVVVVVVVVVVVVVVVVVVVVVVVVVVVVVVVc*........................",
"VVVVVVVVVVVVVVVVVVVVVVVVVVVVVVVVVVVVVVVVVVVVVVVVVVVVVVVVVVVVVVVVVVVVVVVVVVVVVVVVVVVVVVVVVVVVVVVVVVVVVVw.........................",
"VVVVVVVVVVVVVVVVVVVVVVVVVVVVVVVVVVVVVVVVVVVVVVVVVVVVVVVVVVVVVVVVVVVVVVVVVVVVVVVVVVVVVVVVVVVVVVVVVVVVVf+........................C",
"VVVVVVVVVVVVVVVVVVVVVVVVVVVVVVVVVVVVVVVVVVVVVVVVVVVVVVVVVVVVVVVVVVVVVVVVVVVVVVVVVVVVVVVVVVVVVVVVVVVVk= ........................C",
"VVVVVVVVVVVVVVVVVVVVVVVVVVVVVVVVVVVVVVVVVVVVVVVVVVVVVVVVVVVVVVVVVVVVVVVVVVVVVVVVVVVVVVVVVVVVVVVVVVVf= .........................C",
"VVVVVVVVVVVVVVVVVVVVVVVVVVVVVVVVVVVVVVVVVVVVVVVVVVVVVVVVVVVVVVVVVVVVVVVVVVVVVVVVVVVVVVVVVVVVVVVVVcw+...........................C",
"NNNNNNNNNNNNNNNNNNNNNNNBVVVVVVVVVVVVVVVVVVVVVVVVNNNNNNNNNNNNNNNNNMNNNMNNNNMNNNNBNNNNMNNNNNNNNMch0*............................CC",
"112112121211112121211210BVVVVVVVVVVVVVVVVVVVVVVh112111212121111111111211111121111111112111121>&o ............................XCC",
".  ... .   ..  . .  .  1NVVVVVVVVVVVVVVVVVVVVVVp.  ... .   . ... . ....  .... . . . .  ....  .................................CC",
"...................... 1NVVVVVVVVVVVVVVVVVVVVVVp.............................................................................CCC",
"...................... 2NVVVVVVVVVVVVVVVVVVVVVVpX......................................X.....................................CCC",
"...................... 1NVVVVVVVVVVVVVVVVVVVVVVp............................................................................CCCC",
".......................2NVVVVVVVVVVVVVVVVVVVVVVp............................................................................CCCC",
".......................1NVVVVVVVVVVVVVVVVVVVVVVpX...........X..............................................................CCCCC",
"..........X............1NVVVVVVVVVVVVVVVVVVVVVVp..........................................................................CCCCCC",
".............X.........2NVVVVVVVVVVVVVVVVVVVVVVpX.........................................................................CCCCCC",
"...................... 1NVVVVVVVVVVVVVVVVVVVVVVp.........................................................................CCCCCCC",
".......................1NVVVVVVVVVVVVVVVVVVVVVVpX....................................................................X..CCCCCCCC",
"...................... 2NVVVVVVVVVVVVVVVVVVVVVVp...............X..........X............................................CCCCCCCCC",
"...................... 1NVVVVVVVVVVVVVVVVVVVVVVpX...................................................X..................CCCCCCCCC",
".......................2NVVVVVVVVVVVVVVVVVVVVVVp.........................................X............................CCCCCCCCCC",
".......................1NVVVVVVVVVVVVVVVVVVVVVVp.....................................................................CCCCCCCCCCC",
"...................... 1NVVVVVVVVVVVVVVVVVVVVVVpX..................................................................CCCCCCCCCCCCC",
".......X.............. 1NVVVVVVVVVVVVVVVVVVVVVVp..................................................................CCCCCCCCCCCCCC",
".......................2NVVVVVVVVVVVVVVVVVVVVVVp.................................................................CCCCCCCCCCCCCCC",
"...................... 1NVVVVVVVVVVVVVVVVVVVVVVpX..............................................................CCCCCCCCCCCCCCCCC",
"...................... 2NVVVVVVVVVVVVVVVVVVVVVVp.......................................X......................CCCCCCCCCCCCCCCCCC",
"...................... 1NVVVVVVVVVVVVVVVVVVVVVVpX.............................................X.............CCCCCCCCCCCCCCCCCCCC",
".......................2NVVVVVVVVVVVVVVVVVVVVVVp............................X.............................CCCCCCCCCCCCCCCCCCCCCC",
".......................1NVVVVVVVVVVVVVVVVVVVVVVpX..................X...................................CCCCCCCCCCCCCCCCCCCCCCCCC",
".......................1NVVVVVVVVVVVVVVVVVVVVVVp...................................................CCCCCCCCCCCCCCCCCCCCCCCCCCCCC"
};
